<svg width="1608" height="804" viewBox="0 0 1608 804" fill="none" xmlns="http://www.w3.org/2000/svg">
<rect width="1608" height="804" fill="white"/>
<path d="M1371.78 200.757L1296.47 335.414C1294.92 338.194 1290.92 338.21 1289.34 335.443L1212.55 200.77C1210.83 197.755 1213.41 194.103 1216.82 194.714L1292.21 208.188C1292.69 208.274 1293.18 208.273 1293.66 208.186L1367.47 194.733C1370.88 194.112 1373.47 197.736 1371.78 200.757Z" fill="#9DD4FF"/>
<path d="M1328.12 177.04L1272.39 187.959C1271.47 188.139 1270.8 188.915 1270.74 189.846L1267.31 247.742C1267.23 249.106 1268.48 250.165 1269.82 249.858L1285.33 246.277C1286.78 245.942 1288.09 247.221 1287.8 248.681L1283.19 271.253C1282.88 272.772 1284.3 274.071 1285.79 273.62L1295.37 270.709C1296.85 270.258 1298.28 271.561 1297.97 273.081L1290.64 308.537C1290.18 310.755 1293.13 311.964 1294.36 310.063L1295.19 308.793L1340.6 218.17C1341.36 216.652 1340.04 214.922 1338.38 215.244L1322.41 218.326C1320.91 218.615 1319.63 217.218 1320.05 215.749L1330.48 179.615C1330.9 178.144 1329.62 176.745 1328.12 177.04Z" fill="#3DA2F2"/>
<path d="M362.125 482V322H371.891V472.937H450.016V482H362.125ZM482.984 482V362H492.438V482H482.984ZM487.75 340.75C485.667 340.75 483.844 340.021 482.281 338.562C480.771 337.104 480.016 335.333 480.016 333.25C480.016 331.167 480.771 329.396 482.281 327.937C483.792 326.479 485.615 325.75 487.75 325.75C489.833 325.75 491.63 326.479 493.141 327.937C494.703 329.396 495.484 331.167 495.484 333.25C495.484 335.333 494.729 337.104 493.219 338.562C491.708 340.021 489.885 340.75 487.75 340.75ZM574.781 362V370.516H522.359V362H574.781ZM540.094 333.25H549.547V453.641C549.547 458.536 550.484 462.547 552.359 465.672C554.286 468.745 556.786 471.036 559.859 472.547C562.984 474.005 566.318 474.734 569.859 474.734C571.578 474.734 573.063 474.604 574.313 474.344C575.615 474.083 576.839 473.745 577.984 473.328L580.328 482C578.87 482.521 577.255 482.964 575.484 483.328C573.714 483.745 571.63 483.953 569.234 483.953C564.234 483.953 559.495 482.833 555.016 480.594C550.589 478.354 546.995 475.099 544.234 470.828C541.474 466.557 540.094 461.401 540.094 455.359V333.25ZM655.641 484.5C644.807 484.5 635.38 481.818 627.359 476.453C619.339 471.089 613.141 463.745 608.766 454.422C604.391 445.099 602.203 434.474 602.203 422.547C602.203 410.568 604.391 399.891 608.766 390.516C613.193 381.141 619.26 373.745 626.969 368.328C634.677 362.911 643.479 360.203 653.375 360.203C660.094 360.203 666.448 361.557 672.438 364.266C678.479 366.922 683.792 370.776 688.375 375.828C693.01 380.88 696.63 386.974 699.234 394.109C701.891 401.245 703.219 409.266 703.219 418.172V424.109H608.219V415.438H693.688C693.688 406.74 691.917 398.901 688.375 391.922C684.833 384.943 680.016 379.396 673.922 375.281C667.828 371.167 660.979 369.109 653.375 369.109C645.406 369.109 638.297 371.349 632.047 375.828C625.849 380.255 620.927 386.245 617.281 393.797C613.688 401.349 611.813 409.786 611.656 419.109V423.016C611.656 433.016 613.401 442 616.891 449.969C620.432 457.885 625.484 464.161 632.047 468.797C638.609 473.38 646.474 475.672 655.641 475.672C662.203 475.672 667.802 474.578 672.438 472.391C677.125 470.151 680.953 467.443 683.922 464.266C686.891 461.089 689.13 458.016 690.641 455.047L699.313 458.562C697.49 462.573 694.651 466.583 690.797 470.594C686.995 474.552 682.151 477.859 676.266 480.516C670.432 483.172 663.557 484.5 655.641 484.5ZM735.641 482V322H831.578V339.187H755.016V393.25H824.391V410.437H755.016V482H735.641ZM860.973 482V362H878.785V380.125H880.035C882.223 374.188 886.181 369.37 891.91 365.672C897.639 361.974 904.098 360.125 911.285 360.125C912.639 360.125 914.332 360.151 916.363 360.203C918.395 360.255 919.931 360.333 920.973 360.438V379.187C920.348 379.031 918.915 378.797 916.676 378.484C914.488 378.12 912.171 377.937 909.723 377.937C903.889 377.937 898.681 379.161 894.098 381.609C889.566 384.005 885.973 387.339 883.316 391.609C880.712 395.828 879.41 400.646 879.41 406.062V482H860.973ZM987.926 484.5C977.092 484.5 967.587 481.922 959.41 476.766C951.285 471.609 944.931 464.396 940.348 455.125C935.816 445.854 933.551 435.021 933.551 422.625C933.551 410.125 935.816 399.214 940.348 389.891C944.931 380.568 951.285 373.328 959.41 368.172C967.587 363.016 977.092 360.438 987.926 360.438C998.759 360.438 1008.24 363.016 1016.36 368.172C1024.54 373.328 1030.89 380.568 1035.43 389.891C1040.01 399.214 1042.3 410.125 1042.3 422.625C1042.3 435.021 1040.01 445.854 1035.43 455.125C1030.89 464.396 1024.54 471.609 1016.36 476.766C1008.24 481.922 998.759 484.5 987.926 484.5ZM987.926 467.938C996.155 467.938 1002.93 465.828 1008.24 461.609C1013.55 457.391 1017.48 451.844 1020.04 444.969C1022.59 438.094 1023.86 430.646 1023.86 422.625C1023.86 414.604 1022.59 407.13 1020.04 400.203C1017.48 393.276 1013.55 387.677 1008.24 383.406C1002.93 379.135 996.155 377 987.926 377C979.697 377 972.926 379.135 967.613 383.406C962.301 387.677 958.368 393.276 955.816 400.203C953.264 407.13 951.988 414.604 951.988 422.625C951.988 430.646 953.264 438.094 955.816 444.969C958.368 451.844 962.301 457.391 967.613 461.609C972.926 465.828 979.697 467.938 987.926 467.938ZM1088.88 409.812V482H1070.45V362H1088.26V380.75H1089.82C1092.63 374.656 1096.9 369.76 1102.63 366.063C1108.36 362.313 1115.76 360.438 1124.82 360.438C1132.95 360.438 1140.05 362.104 1146.15 365.437C1152.24 368.719 1156.98 373.719 1160.37 380.437C1163.75 387.104 1165.45 395.542 1165.45 405.75V482H1147.01V407C1147.01 397.573 1144.56 390.229 1139.66 384.969C1134.77 379.656 1128.05 377 1119.51 377C1113.62 377 1108.36 378.276 1103.73 380.828C1099.14 383.38 1095.52 387.104 1092.87 392C1090.21 396.896 1088.88 402.833 1088.88 409.812ZM1251.32 362V377.625H1189.14V362H1251.32ZM1207.26 333.25H1225.7V447.625C1225.7 452.833 1226.45 456.74 1227.96 459.344C1229.53 461.896 1231.51 463.615 1233.9 464.5C1236.35 465.333 1238.93 465.75 1241.64 465.75C1243.67 465.75 1245.33 465.646 1246.64 465.437C1247.94 465.177 1248.98 464.969 1249.76 464.812L1253.51 481.375C1252.26 481.844 1250.52 482.313 1248.28 482.781C1246.04 483.302 1243.2 483.563 1239.76 483.563C1234.55 483.563 1229.45 482.443 1224.45 480.203C1219.5 477.964 1215.39 474.552 1212.11 469.969C1208.88 465.385 1207.26 459.604 1207.26 452.625V333.25Z" fill="#3DA2F2"/>
</svg>
