<svg width="1924" height="801" viewBox="0 0 1924 801" fill="none" xmlns="http://www.w3.org/2000/svg">
    <rect width="1924" height="801" fill="white"/>
    <path d="M402.523 558H223.666V245.162H234.506V547.811H402.523V558ZM443.932 324.727H454.555V558H443.932V324.727ZM449.352 261.855C446.461 261.855 443.932 260.844 441.764 258.82C439.74 256.797 438.729 254.34 438.729 251.449C438.729 248.559 439.74 246.102 441.764 244.078C443.932 242.055 446.461 241.043 449.352 241.043C452.242 241.043 454.699 242.055 456.723 244.078C458.746 246.102 459.758 248.559 459.758 251.449C459.758 254.195 458.746 256.652 456.723 258.82C454.699 260.844 452.242 261.855 449.352 261.855ZM532.602 262.289V324.727H582.031V334.482H532.602V507.053C532.602 521.795 535.42 532.346 541.057 538.705C546.549 545.064 555.51 548.244 567.939 548.244L585.934 548.027V558L567.289 558.217C551.391 558.217 539.9 554.242 532.818 546.293C525.592 538.344 521.979 525.336 521.979 507.27V334.482H487.291V324.727H521.979V262.289H532.602ZM702.137 331.23C676.121 331.23 654.875 340.48 638.398 358.98C621.922 377.336 613.033 401.689 611.732 432.041H790.59C790.59 402.123 782.496 377.842 766.309 359.197C749.977 340.553 728.586 331.23 702.137 331.23ZM798.395 493.178C794.348 513.412 784.158 529.672 767.826 541.957C750.627 554.965 729.309 561.469 703.871 561.469C672.219 561.469 647.215 550.918 628.859 529.816C610.07 508.426 600.676 478.941 600.676 441.363C600.676 405.23 609.926 376.18 628.426 354.211C646.926 332.242 671.496 321.258 702.137 321.258C731.766 321.258 755.758 331.592 774.113 352.26C792.324 372.928 801.43 400.027 801.43 433.559V441.797H611.516V442.23C611.516 476.484 619.971 503.367 636.881 522.879C653.502 541.957 675.904 551.496 704.088 551.496C726.635 551.496 745.496 545.859 760.672 534.586C774.836 524.18 783.725 510.377 787.338 493.178H798.395Z"
          fill="black"/>
    <path d="M842.666 558V245.162H1019.79V255.352H853.506V392.801H1006.56V402.99H853.506V558H842.666ZM1062.93 324.727H1072.9V373.072H1073.34C1083.74 338.529 1105.21 321.258 1137.73 321.258C1146.25 321.258 1154.06 322.775 1161.14 325.811V336.867C1153.91 333.254 1145.53 331.447 1135.99 331.447C1116.91 331.447 1101.67 339.107 1090.25 354.428C1079.12 369.314 1073.55 388.754 1073.55 412.746V558H1062.93V324.727ZM1265.64 561.469C1234.71 561.469 1209.92 550.629 1191.28 528.949C1172.34 507.125 1162.88 477.93 1162.88 441.363C1162.88 404.797 1172.34 375.529 1191.28 353.561C1210.06 332.025 1234.85 321.258 1265.64 321.258C1296.42 321.258 1321.21 332.025 1340 353.561C1358.93 375.529 1368.4 404.797 1368.4 441.363C1368.4 477.93 1358.93 507.125 1340 528.949C1321.21 550.629 1296.42 561.469 1265.64 561.469ZM1265.64 551.279C1293.39 551.279 1315.64 541.379 1332.41 521.578C1349.32 501.633 1357.78 474.895 1357.78 441.363C1357.78 407.688 1349.32 380.877 1332.41 360.932C1315.64 341.131 1293.39 331.23 1265.64 331.23C1237.89 331.23 1215.7 341.131 1199.08 360.932C1182.17 380.877 1173.71 407.688 1173.71 441.363C1173.71 475.039 1182.17 501.777 1199.08 521.578C1215.7 541.379 1237.89 551.279 1265.64 551.279ZM1408.51 324.727H1418.48V379.793H1418.91C1423.97 362.305 1433.94 348.213 1448.83 337.518C1464.01 326.678 1481.64 321.258 1501.73 321.258C1527.6 321.258 1548.48 328.99 1564.38 344.455C1580.43 360.209 1588.45 381.094 1588.45 407.109V558H1577.82V407.543C1577.82 384.273 1570.6 365.629 1556.14 351.609C1541.98 338.023 1523.34 331.23 1500.21 331.23C1476.36 331.23 1456.92 339.324 1441.89 355.512C1426.72 371.699 1419.13 392.512 1419.13 417.949V558H1408.51V324.727ZM1662.81 262.289V324.727H1712.24V334.482H1662.81V507.053C1662.81 521.795 1665.63 532.346 1671.26 538.705C1676.76 545.064 1685.72 548.244 1698.15 548.244L1716.14 548.027V558L1697.5 558.217C1681.6 558.217 1670.11 554.242 1663.03 546.293C1655.8 538.344 1652.19 525.336 1652.19 507.27V334.482H1617.5V324.727H1652.19V262.289H1662.81Z"
          fill="#AD2323"/>
</svg>
