<svg xmlns="http://www.w3.org/2000/svg" version="1.1"
     viewBox="0 0 640 800">
  <defs>
    <linearGradient x1="50%" y1="0%" x2="50%" y2="100%" id="ssscribble-grad">
      <stop stop-color="hsl(206, 75%, 49%)" stop-opacity="1" offset="0%"></stop>
      <stop stop-color="hsl(331, 90%, 56%)" stop-opacity="1" offset="100%"></stop>
    </linearGradient>
  </defs>
  <g fill="none" stroke-width="1.5" stroke="url(#ssscribble-grad)" stroke-linecap="round">
    <path
      d="M1020.59 244.97C953.65 277.83 821.21 326.37 678.76 392.02 576.32 461.07 545.86 550.66 586.42 656.04 681.32 753.13 787.9 841.24 870.45 893.12 913.9 891.84 902.08 828.84 844.65 716.14 752.88 610.93 646.76 554.73 544.15 599.08 446.41 741.44 367.34 926.89 306.84 1055.48 257.8 1048.27 220.62 905.65 189.18 723.1 161.38 645.66 132.42 737.36 99.56 939.14 66.7 1089.22 31.5 1064.17 -2.67 893.22 -33.2 702.52 -55.81 623.9 -63.71 691.04 -60.16 850.55 -35.2 986.62 11.89 1021.58 63.85 942.86 122.78 790.13 171.49 633.01 185.85 513.88 158.71 465.08 81.05 474.23 -35.71 528.32 -171.77 591.66 -290.75 640.7 -355.4 683.24 -343.64 698.63 -253.88 691.59 -124.12 678.13 1.65 652.49 68.59 619.63 41.95 586.77 -60.57 548.25 -191.86 499.74 -306.21 444.82 -355.04 369.65 -326.04 270.17 -231.56 164.19 -101.36 46.72 26.95 -58.01 129.75 -117.82 187.01 -116.22 200.1 -40.17 173.62 73.87 126.86 187.64 77.84 232.17 26.03 163.02 -8.71 -2.5 -23.61 -186.1 -29.37 -277.35 -18.47 -217.47 3.79 -39.47 29.61 118.81 60.42 137.25 93.28 -12.78 126.14 -214.58 159.49 -299.66 195.65 -209.57 235.35 -14.35 284.23 146.98 346.94 178.32 418.79 73.83 507.65 -82.14 610.1 -190.3 709.77 -200.46 803.71 -105.31 873.26 42.95 903.24 198.72 884.94 308.91 816.36 360.86 722.26 359.63 621.53 325.65 551.14 285.51 546.22 237.07 613.75 207.26 740.79 200.18 884.76 196.49 993.95 212.12 1020.59 244.97Q1020.59 244.97 1020.59 244.97"
      opacity="0.80"></path>
    <path
      d="M986.59 449.46C927.14 479.97 808.19 529.12 673.77 593.14 564.88 654.22 512.24 722.36 522.38 784.59 588.49 825.3 681.01 836.69 769.85 804.32 840.6 740.12 870.28 646.16 858.07 553.36 810.27 511.11 736.11 541.84 650.87 658.56 557.25 822.2 470.38 973.06 395.94 1033.55 326.27 970.92 269.65 814.32 224.13 658.27 181.17 613.8 145.03 715.72 114.52 905.14 84 1049.53 60.57 1044.84 45.98 903.24 33.95 716.8 35.07 599.68 51.85 606.44 73.42 722.45 110.04 868.18 156.63 964.46 194.83 974.7 225.19 892.9 233 760.56 205.21 612.97 139.35 496.4 36.83 426.72 -83.77 401.68 -203.65 411.49 -292.13 434.94 -324.65 472.27 -289.37 499.52 -192.25 508.89 -69.61 517.71 43.14 507.07 102.59 476.57 80.95 446.06 -7.98 397.11 -127.73 330.76 -242.75 263.85 -309.64 181.09 -311.59 90.88 -252.27 14.54 -147.88 -45.53 -27.42 -67.52 88.88 -44.88 177.55 27.85 230.85 135.45 248.9 227.81 238.81 273.45 213.78 231.46 174.64 103.42 139.27 -69.66 115.07 -208.05 92.51 -237.21 84.91 -137.48 91.66 37.17 100.33 167.01 120.44 165.56 150.95 21.21 181.46 -168.22 220.94 -263.99 269.81 -207.78 320.61 -39.97 383.72 134 459.16 219.02 536.24 180.93 621.86 57.45 708.03 -74.42 780.09 -159.39 833.98 -153.95 855.93 -71.73 842.62 61.05 790.12 198.82 705.59 310.05 616.9 389.46 539.87 428.33 502.92 440.51 527.25 431.17 611.5 418.54 738.29 415 869.83 408.53 964.95 418.96 986.59 449.46Q986.59 449.46 986.59 449.46"
      opacity="0.96"></path>
    <path
      d="M952.59 610.82C900.27 638.99 794.74 672.64 670.26 706.9 524.66 745.28 542.07 713.23 657.37 618.93 738.27 549.16 795.12 487.18 820.35 462.78 817.03 499.72 784.14 600.64 731.66 749.09 663.5 893.52 590.74 986.07 521.54 979.64 450.53 878.11 388.73 723.85 338.17 600.11 288.36 585.89 249.05 694.64 220.88 871.14 192.72 1008.9 177.03 1021.88 173.71 910.57 171.16 738.42 181.71 597.65 203.92 550.22 224.3 608.16 250.68 729.46 275.42 850.38 284.49 929.57 276.95 931.62 243.35 866.31 181.21 752.68 90.96 626.16 -19.26 514.65 -129.31 422.77 -223.72 364.29 -279.24 331.89 -282.6 319.08 -229.13 315.4 -129.15 309.56 -15.54 307.87 84.27 294.9 136.59 266.74 119.5 238.58 43.64 196.55 -63.35 145.12 -214.28 74.06 -220.52 3.89 -84.52 58.39 27.6 126.48 130.23 212.57 210.94 289.29 267.47 317.7 296.95 282.28 306.09 173.78 288.89 -49.74 242.15 -112.51 239.07 111.12 241 211.59 255.65 192.94 283.82 55.21 311.99 -121.29 352.33 -224.37 403.52 -199.31 454.7 -64.71 515.99 105.57 583.87 227.76 647.3 254.85 709.75 187.57 762.32 72.47 796.6 -46.65 807.56 -114.18 787.94 -114.2 744.15 -52.89 674.91 49.51 592.11 162.69 521.59 277.47 474.54 369.73 470.33 436.29 518.82 485.99 613.68 518.18 736.06 542.45 853.93 561.31 935.5 582.66 952.59 610.82Q952.59 610.82 952.59 610.82"
      opacity="0.45"></path>
    <path
      d="M918.59 588.38C873.01 614.2 780.7 629.43 667.68 632.06 559.02 631.52 478.4 613.6 438.41 577.08 442.96 538.26 483.54 488.03 545 439.16 619.75 415.04 686.46 421.58 734.58 474.57 765.67 571.07 771.31 701.71 755.62 836.53 723.66 931.59 679.59 957.8 630.91 896.95 576.33 775.95 524.49 638.07 479.59 549.58 433.86 561.83 397.16 674.07 371.34 837.14 345.52 967.37 331.81 995.13 328.85 913.68 325.05 763.78 329.92 614.79 339.76 525.88 343.7 523.34 345.24 596.27 337.41 704.03 313.3 813.71 270.6 880.62 205.67 891.42 123.71 850.19 26.39 769.28 -75.24 672.3 -163.58 566.11 -227.32 472.76 -250.8 398.8 -229.73 335.51 -163.81 289.54 -65.11 255.15 37.93 225.21 125.02 198.89 170.59 173.07 157.59 147.25 94.17 123.15 0.73 104.39 -103.66 90.09 -188.38 89.08 -235.76 107.63 -241.56 136.83 -203.13 187.66 -132.17 254.06 -39.01 311.25 59.58 355.1 150.35 362.5 230.37 317.88 290.7 220.37 332.09 83.81 357.58 -50.83 370.58 -146.93 377.49 -163.33 377.16 -93.38 378.52 40.9 385.89 180.84 391.86 252.36 406.92 219.4 432.74 89.2 458.56 -73.87 493.92 -180.91 536.64 -183.23 577.96 -84.79 623.57 67.77 668.65 207.71 706.48 287.5 736 284.46 750.3 216.29 748.71 108.35 725.44 8.33 679.27 -54.33 622.34 -73.48 554.34 -42.96 488.07 20.94 444 109.61 428.72 202.36 453.45 285.92 519.76 367.19 619.17 432.08 733.53 481.31 836.93 527.37 905.59 562.56 918.59 588.38Q918.59 588.38 918.59 588.38"
      opacity="0.60"></path>
    <path
      d="M884.58 401.72C845.34 425.19 765.85 432.69 665.43 425.69 562.62 419.42 476.64 401.17 419.94 376.64 398.05 361.46 409.21 353.13 444.8 363.83 500.74 401.83 560.88 471.4 614.79 572.49 663.59 686.49 695.36 801.05 709.46 887.6 711.71 920.42 699.46 887.82 677.47 792.74 648.83 671.58 616.59 560.52 584.98 507.34 551.76 541.46 522.4 653.97 498.93 803.15 475.46 924.98 458.98 964.46 447.94 911.17 435.29 789 424.82 646.08 412.78 532.46 394.1 478.2 367.7 493.22 329.27 559.44 278.99 657.64 213.53 750.05 133.96 813.57 49.29 844.18 -38.67 833.15 -119.04 791.12 -179.08 724.84 -211.28 648.94 -206.6 575.7 -167.1 499.84 -94.49 435.72 -0.74 385.62 90.62 336.92 165.35 300.75 204.59 277.28 195.24 253.81 143.48 244.14 63.97 248.58 -30.38 254.41 -115.31 275.83 -175.25 311.01 -205.48 343.58 -198.5 380.82 -159.55 410.93 -95.01 416.78 -15.27 394.11 68.22 332.74 152.79 238.45 227.72 118.21 289.59 -4.42 341.97 -95.07 381.65 -131.15 411.62 -94.09 434.98 2.31 454.05 131.87 472.36 244.98 488.85 289.22 508.1 244.98 531.57 123.15 555.04 -26.02 581.62 -133.78 609.4 -158.84 635.36 -96.6 658.99 27.8 676.31 166.17 687.02 278.46 685.99 332.11 669.79 323.73 644.1 261.62 602.87 174.88 549.07 91.65 470.37 3.39 396.82 32.6 451.28 111.95 528.41 177.16 626.7 238.1 730.12 288.64 818.69 339.9 875.21 378.24 884.59 401.71Q884.58 401.72 884.58 401.72"
      opacity="0.40"></path>
    <path
      d="M850.65 213.43C817.56 234.55 750.52 247.61 663.45 255.16 569.53 265.49 483.56 275.94 416.62 292.72 374.23 320.53 358.83 363.83 366.83 427.44 396.57 505.1 437.82 599.58 482.17 701.11 530.65 789.52 571.46 855.16 601.15 879.35 625.53 855.57 637.41 783.42 638.28 677.18 634.38 572.19 622.85 494.07 606.32 473.6 588.3 524.41 568.08 634.13 546.95 769.04 525.83 881.63 504.81 929.7 482.99 901.73 459.67 810.06 432.78 684.94 400.06 564.46 362.58 475.36 315.92 437.63 258.98 450 196.73 505.63 125.59 581.75 49.43 657.1 -22.6 726.14 -88.9 769.79 -140.64 786.28 -170.64 781.69 -174.18 756.52 -147.28 719.95 -95.82 673.58 -21.87 626.68 63.88 585.5 142.8 542.65 205.56 509.41 238.65 488.28 232.24 467.15 191.04 459.13 125.28 462.15 43.06 463.49 -37.1 471.96 -102.48 481.72 -149.24 481.68 -167.69 472.07 -158.63 444.12 -125.95 395.08 -73.94 321.1 -10.88 224.38 60.9 121.34 132.31 20.17 198.13 -57.46 261.57 -91.84 315.95 -73.07 360.98 0.52 402.19 105.51 436.19 218.61 464.53 302.14 491.49 321.98 515.25 269.67 536.37 157.1 566.24 -30.54 601.58 -52.28 599.2 113.25 590.77 234.98 571.19 326.08 540.3 371.86 507.05 369.68 465.96 329.09 421.86 268.36 386.49 194.53 359.52 130.37 348.84 85.26 361.78 54.21 399.17 45.7 461.42 54.5 542.29 74.34 634.48 102.31 724.85 131.82 798.76 164.11 844.24 192.3 850.65 213.43Q850.65 213.43 850.65 213.43"
      opacity="0.54"></path>
    <path
      d="M816.57 187.93C788.8 206.71 733.27 229.75 659.68 258.12 577 288.58 495.98 328.03 425.64 378.57 370.52 434.01 335 501.85 318.77 579.5 321.41 655.03 337.91 729.44 362.69 791.46 396.48 829.11 430.16 836.47 459.49 806.33 489.29 745.73 511.05 658.75 523.81 562.49 534.71 484.94 537.12 441.28 531.7 448.74 525.46 510.75 512.8 614.88 494.02 735.21 475.24 837.76 451.24 891.2 422.06 884.78 392.07 823.66 355.5 724.43 312.05 613.2 266.76 509.92 214.07 435.95 155.33 399.36 97.06 400.89 36.42 433 -21.97 482.35 -71.36 545.16 -110.13 603.58 -132.31 649.42 -135.63 687.71 -116.95 708.5 -75.6 713.96 -19.02 711.4 51.3 699.09 126.73 681.61 193.08 661.71 244.8 641.26 272.57 622.49 269.03 603.71 237.72 587.49 185.48 571.98 116.87 554.04 45.39 532.19 -19.18 502.21 -74.48 464.2 -110.56 412.49 -125.72 345.26 -122.56 270.48 -100.61 185.1 -64.77 97.68 -17.33 23.72 36.16 -30.64 90.62 -51.72 148.03 -34.69 201.58 22.43 248.96 111.95 295.67 209.42 335.57 297.96 368.19 351.83 400.27 351.01 425.91 293.76 444.69 191.21 463.47 70.88 474.5 -29.44 477.84 -84.21 480.64 -84.42 474.9 -30.07 460.73 61.24 445.9 171.26 423.27 275.07 394.8 355.23 369.27 404.93 342.73 419.83 319.9 406.79 308.66 369.38 308.97 321.93 325.36 275.34 360.06 226.62 412.98 189.71 482.03 166.81 560.38 148.82 642.54 143.53 718.4 148.47 777.89 155.52 813.02 169.14 816.58 187.92Q816.57 187.93 816.57 187.93"
      opacity="0.74"></path>
    <path
      d="M782.58 347.22C715.64 380.08 583.36 454.09 445.09 559.66 336.55 657.36 283.23 753.17 276.65 791.35 308.72 747.73 348.23 615.57 371.85 460.15 397.82 404.37 396.48 499.4 363.62 701.2 330.76 851.24 269.49 825.48 186.57 667.17 106 478.88 15.21 369.17 -59.93 357.31 -96.41 422.84 -77.95 503.08 6.5 552 120.68 593.96 239.64 595.53 306.58 562.67 279.94 529.81 183.96 465.63 69.88 366.72 -34.47 260.85 -82.89 129.32 -74.6 20.73 -24.97 -10.47 50.36 64.38 124.08 228.58 203.76 362.79 264.87 375.24 297.73 225.2 330.59 23.4 332.09 -58.3 309.36 21.55 292.59 201.06 268.53 368.07 261.98 454.77 296.76 459.65 380.03 415.13 508.47 374.37 646.64 325.76 755.94 314.36 782.58 347.22Q782.58 347.22 782.58 347.22"
      opacity="0.97"></path>
    <path
      d="M748.58 552.48C696.24 580.64 590.73 632.76 471.06 690.52 360.01 730.06 281.33 739.36 238.63 690.11 228.74 539.29 244.39 435.43 213.89 667.15 185.72 804.91 136.72 816.28 76.64 714.42 23.53 553.52 -25.24 410.58 -49.86 327.99 -44.07 304.17 4.72 322.43 95.12 345.53 194.15 380.19 288.24 389.15 340.58 360.99 323.51 332.84 253 270.22 161.15 186.74 62.49 114.82 -5.4 52.6 -33.1 39.49 -32.67 85.14 -2.87 198.2 38.38 338.46 88.23 419.69 132.43 396.94 160.6 259.21 188.77 82.69 198.24 -16.35 197.2 4.37 204.75 122.05 218.91 275.77 255.38 401.6 320 487.78 417.76 522.43 537.06 531.71 649.56 522.75 731.5 524.3 748.59 552.47Q748.58 552.48 748.58 552.48"
      opacity="0.67"></path>
    <path
      d="M714.58 624.86C675.35 648.33 595.69 664.41 499.62 663.28 399.79 650.3 314.32 603.64 251.76 522.68 206.9 441.24 179.64 363.13 161.3 329.8 149.6 370.92 134.78 483.98 111.31 633.15 87.83 754.98 57.93 792.19 28.96 743.76 6.62 633.9 -2.74 504.94 11.35 396.78 43.14 312.06 103.71 264.06 186.34 239.39 265.21 228.35 335.35 216.82 374.58 193.35 365.23 169.87 317.61 136.69 250.36 107.05 168.91 91.04 100.26 102.41 55.75 156.35 24.77 233.75 18.5 337.81 29.53 430.46 47.19 461.7 70.95 415.01 94.42 293.21 117.89 144.02 138.85 40.45 161.87 16.51 191.51 67.04 234.41 170.05 296.15 282.25 371.42 393.98 464.97 477.28 563.62 530.94 648.08 572.74 705.21 601.38 714.59 624.85Q714.58 624.86 714.58 624.86"
      opacity="0.08"></path>
    <path
      d="M680.59 501.21C652.83 519.99 596.96 515.23 526.58 488.38 447.67 460.17 371.8 411.51 307.65 354.14 250.04 314.15 205.4 293.18 172.59 311.31 143.57 374.86 120.35 478.82 101.57 599.14 76.51 727.17 74.64 651.82 115.31 521.52 154.85 429.98 210.81 355.6 275.95 303.12 332.57 256.42 380.83 224.62 408.59 205.84 405.03 187.06 376.74 183.09 333.48 197.24 275.65 217.18 220.46 262.25 177.24 329.18 124.93 424.92 105.76 458.97 128.57 327.14 147.34 206.82 175.06 110.47 211.74 60.68 251.47 56.32 304.54 97.2 369.57 161.81 437.41 243.79 512.51 321.75 584.1 382.5 641.13 441.9 677.03 482.43 680.59 501.21Q680.59 501.21 680.59 501.21"
      opacity="0.27"></path>
    <path
      d="M646.58 289.33C594.24 317.5 488.73 285.32 388.1 250.01 288.01 275.06 217.15 388.65 188.98 565.15 160.81 702.92 180.68 710.82 243.85 634.78 307.56 514.54 390.24 415.77 442.58 387.6 425.51 359.43 365.59 407.21 309.35 490.53 244.82 529.66 219.73 498.92 247.9 361.15 276.07 184.65 352.15 93.89 453.6 105.76 546.76 177.98 629.51 261.16 646.58 289.33Q646.58 289.33 646.58 289.33"
      opacity="0.42"></path>
    <path
      d="M612.59 173.91C529.63 211.47 372.28 306.59 334.73 531.14 297.17 689.72 393.63 617.71 476.59 580.15 438.68 542.6 361.68 553.72 399.24 395.14 436.79 170.59 574.68 136.36 612.59 173.91Q612.59 173.91 612.59 173.91"
      opacity="0.24"></path>
  </g>
</svg>
