<!--https://fffuel.co/ccchaos/-->
<svg xmlns="http://www.w3.org/2000/svg" version="1.1" viewBox="0 0 800 800">
  <defs>
    <linearGradient x1="50%" y1="0%" x2="50%" y2="100%" id="ccchaos-grad">
      <stop stop-color="hsl(206, 75%, 49%)" stop-opacity="1" offset="0%"></stop>
      <stop stop-color="hsl(331, 90%, 56%)" stop-opacity="1" offset="100%"></stop>
    </linearGradient>
  </defs>
  <g stroke-width="2" stroke="url(#ccchaos-grad)" fill="none" stroke-linecap="round">
    <path
      d="M380.7 100.4C390.12 101.54 399.54 103.65 408.94 106.63 418.36 109.96 427.79 113.98 437.22 118.57 446.7 123.23 456.21 128.27 465.76 133.59 475.4 138.71 485.11 143.96 494.9 149.27 504.81 154.21 514.83 159.15 524.94 164.06 535.2 168.54 545.56 173.01 555.99 177.47 566.53 181.55 577.11 185.7 587.66 189.95 598.22 193.93 608.64 198.1 618.83 202.5 628.84 206.76 638.46 211.33 647.53 216.24 656.2 221.11 664.12 226.38 671.15 232.04 677.53 237.74 682.85 243.87 686.97 250.41 690.29 257.02 692.34 264.03 693.07 271.43 693.04 278.89 691.77 286.71 689.34 294.85 686.42 303.04 682.6 311.52 678.06 320.25 673.54 329.01 668.69 338 663.73 347.17 659.41 356.36 655.38 365.72 651.84 375.22 649.43 384.73 647.78 394.16 646.89 403.5 647.2 412.85 648.15 422.13 649.63 431.35 652 440.61 654.59 449.85 657.21 459.07 660.24 468.39 662.93 477.75 665.13 487.17 667.24 496.74 668.55 506.44 668.97 516.25 668.93 526.27 667.84 536.45 665.69 546.78 662.93 557.31 659.09 567.97 654.22 578.71 648.77 589.56 642.39 600.39 635.19 611.1 627.52 621.72 619.18 632.03 610.26 641.88 601.06 651.33 591.43 660.08 581.48 667.94 571.4 675.09 561.1 681.11 550.67 685.86 540.21 689.67 529.68 692.09 519.16 693.07 508.66 693.11 498.18 691.81 487.77 689.23 477.39 686.08 467.09 681.98 456.87 677.16 446.69 672.42 436.59 667.45 426.59 662.52 416.61 658.41 406.71 654.83 396.91 651.97 387.11 650.48 377.63 649.94 368.45 650.31 359.26 652 350.37 654.36 341.78 657.21 333.15 660.86 324.81 664.56 316.75 668.07 308.64 671.7 300.79 674.69 293.21 676.84 285.56 678.55 278.14 679.12 270.97 678.49 263.68 677.09 256.61 674.39 249.74 670.45 242.73 665.69 235.9 659.78 229.24 652.83 222.42 645.23 215.75 636.78 209.25 627.64 202.57 618.09 196.04 608.05 189.68 597.66 183.17 587.11 176.84 576.35 170.74 565.5 164.52 554.65 158.55 543.79 152.88 532.99 147.17 522.28 141.8 511.65 136.84 501.14 131.92 490.73 127.46 480.43 123.5 470.24 119.68 460.14 116.42 450.13 113.75 440.21 111.29 430.34 109.46 420.53 108.3 410.79 107.37 401.07 107.11 391.4 107.57 381.8 108.23 372.2 109.56 362.88 111.5 353.86 113.59 344.83 116.23 336.11 119.38 327.7 122.58 319.3 126.22 311.22 130.25 303.49 134.24 295.77 138.57 288.4 143.18 281.4 147.67 274.4 152.41 267.75 157.36 261.47 162.13 255.15 167.1 249.17 172.24 243.52 177.18 237.77 182.31 232.29 187.61 227.06 192.72 221.66 198.03 216.42 203.54 211.34 208.9 205.98 214.49 200.69 220.33 195.45 226.06 189.86 232.06 184.27 238.33 178.66 244.55 172.69 251.07 166.7 257.88 160.73 264.66 154.46 271.75 148.27 279.14 142.25 286.53 136.08 294.21 130.21 302.17 124.73 310.14 119.36 318.38 114.55 326.88 110.43 335.37 106.66 344.12 103.73 353.1 101.73 362.07 100.26 371.27 99.8 380.69 100.4"
      stroke-dasharray="8 5" transform="rotate(0, 400, 400)" opacity="0.47"></path>
    <path
      d="M383.44 111C392.56 112.13 401.71 114.17 410.88 117.06 420.06 120.28 429.29 124.18 438.55 128.64 447.85 133.19 457.21 138.13 466.63 143.36 476.12 148.43 485.69 153.65 495.34 158.96 505.09 163.94 514.93 168.94 524.85 173.92 534.87 178.5 544.95 183.08 555.06 187.64 565.24 191.84 575.38 196.08 585.44 200.4 595.45 204.43 605.26 208.62 614.77 212.99 624.07 217.19 632.93 221.65 641.2 226.4 649.05 231.07 656.16 236.09 662.38 241.46 667.99 246.83 672.57 252.59 676.04 258.72 678.77 264.89 680.34 271.45 680.71 278.37 680.41 285.33 679.01 292.64 676.56 300.28 673.72 307.96 670.08 315.94 665.8 324.19 661.58 332.46 657.07 340.98 652.46 349.73 648.46 358.48 644.71 367.44 641.37 376.6 639.07 385.76 637.43 394.9 636.47 404.01 636.59 413.13 637.29 422.24 638.47 431.34 640.47 440.48 642.69 449.64 644.97 458.82 647.66 468.1 650.09 477.45 652.11 486.87 654.1 496.43 655.41 506.11 655.95 515.9 656.13 525.85 655.38 535.93 653.67 546.11 651.44 556.43 648.23 566.81 644.06 577.2 639.36 587.62 633.78 597.94 627.4 608.04 620.58 617.99 613.07 627.55 604.98 636.59 596.59 645.19 587.74 653.06 578.52 660.02 569.14 666.29 559.5 671.48 549.67 675.45 539.79 678.56 529.79 680.39 519.74 680.89 509.69 680.6 499.63 679.08 489.6 676.44 479.59 673.33 469.62 669.4 459.72 664.84 449.85 660.4 440.05 655.78 430.33 651.19 420.63 647.39 411.01 644.06 401.49 641.36 391.96 639.92 382.74 639.32 373.82 639.54 364.88 640.97 356.23 643.01 347.87 645.51 339.47 648.78 331.35 652.12 323.49 655.33 315.57 658.72 307.9 661.58 300.49 663.73 292.98 665.54 285.7 666.37 278.64 666.12 271.47 665.23 264.49 663.16 257.7 659.95 250.77 656 244.01 650.96 237.41 644.92 230.65 638.26 224.04 630.74 217.59 622.51 210.97 613.85 204.51 604.65 198.22 595.03 191.79 585.19 185.54 575.08 179.52 564.81 173.4 554.48 167.54 544.07 161.97 533.67 156.39 523.29 151.14 512.96 146.29 502.71 141.51 492.53 137.16 482.44 133.32 472.45 129.61 462.53 126.45 452.71 123.87 442.99 121.5 433.32 119.74 423.73 118.64 414.24 117.77 404.76 117.56 395.37 118.03 386.07 118.72 376.78 120.06 367.79 121.99 359.12 124.06 350.45 126.68 342.09 129.8 334.06 132.96 326.02 136.56 318.31 140.54 310.94 144.49 303.56 148.76 296.52 153.32 289.82 157.76 283.1 162.45 276.71 167.35 270.65 172.07 264.53 176.99 258.7 182.08 253.16 186.97 247.49 192.04 242.05 197.28 236.82 202.32 231.39 207.55 226.1 212.97 220.93 218.22 215.48 223.69 210.08 229.38 204.71 234.95 199.02 240.77 193.31 246.85 187.61 252.84 181.58 259.11 175.55 265.65 169.56 272.15 163.32 278.94 157.2 286.02 151.25 293.07 145.22 300.41 139.5 308.02 134.18 315.62 129 323.5 124.39 331.65 120.44 339.78 116.85 348.17 114.07 356.81 112.19 365.44 110.81 374.31 110.41 383.43 111"
      stroke-dasharray="8 4" transform="rotate(4.04, 400, 400)" opacity="0.37"></path>
    <path
      d="M386.87 121.61C395.69 122.71 404.58 124.69 413.51 127.47 422.45 130.59 431.46 134.36 440.51 138.68 449.61 143.11 458.78 147.93 468.01 153.05 477.3 158.06 486.68 163.23 496.12 168.51 505.64 173.51 515.23 178.55 524.86 183.58 534.56 188.26 544.29 192.93 553.99 197.59 563.71 201.91 573.36 206.25 582.85 210.65 592.25 214.76 601.4 219 610.2 223.38 618.77 227.56 626.85 231.96 634.32 236.61 641.38 241.14 647.69 245.98 653.15 251.13 658.03 256.24 661.94 261.69 664.81 267.49 667.03 273.3 668.18 279.46 668.24 285.97 667.73 292.5 666.23 299.37 663.8 306.57 661.06 313.78 657.61 321.31 653.6 329.12 649.68 336.94 645.5 345.04 641.23 353.39 637.53 361.73 634.04 370.33 630.91 379.16 628.71 387.99 627.09 396.85 626.07 405.72 626.02 414.6 626.49 423.52 627.38 432.47 629.05 441.46 630.92 450.5 632.86 459.6 635.22 468.78 637.37 478.04 639.18 487.39 641.03 496.85 642.3 506.42 642.9 516.08 643.23 525.85 642.74 535.71 641.4 545.63 639.63 555.61 636.95 565.61 633.4 575.53 629.39 585.42 624.54 595.13 618.92 604.56 612.9 613.77 606.2 622.55 598.91 630.74 591.33 638.49 583.26 645.48 574.79 651.58 566.14 657.02 557.19 661.41 548.01 664.67 538.75 667.15 529.33 668.46 519.81 668.56 510.27 667.97 500.67 666.31 491.07 663.64 481.48 660.61 471.89 656.86 462.36 652.57 452.84 648.43 443.36 644.14 433.96 639.9 424.57 636.39 415.24 633.29 406 630.75 396.75 629.36 387.8 628.71 379.13 628.8 370.44 629.98 362.02 631.72 353.88 633.88 345.7 636.78 337.77 639.77 330.09 642.67 322.35 645.81 314.84 648.5 307.56 650.6 300.2 652.46 293.04 653.47 286.08 653.54 279.01 653.07 272.12 651.55 265.4 648.97 258.55 645.77 251.85 641.53 245.31 636.34 238.62 630.57 232.07 623.97 225.68 616.63 219.14 608.87 212.75 600.53 206.53 591.73 200.2 582.67 194.05 573.28 188.13 563.66 182.13 553.94 176.39 544.08 170.94 534.16 165.49 524.23 160.39 514.3 155.66 504.41 151.02 494.55 146.81 484.75 143.08 475.05 139.51 465.38 136.46 455.81 133.98 446.35 131.7 436.92 130.03 427.58 128.99 418.35 128.17 409.15 128 400.04 128.5 391.05 129.21 382.05 130.54 373.38 132.46 365.04 134.51 356.69 137.1 348.65 140.16 340.95 143.29 333.23 146.84 325.83 150.76 318.76 154.65 311.67 158.86 304.89 163.36 298.44 167.75 291.94 172.38 285.74 177.22 279.84 181.9 273.85 186.77 268.12 191.8 262.63 196.65 257 201.67 251.56 206.84 246.29 211.83 240.81 217 235.44 222.33 230.17 227.5 224.62 232.87 219.11 238.44 213.63 243.88 207.85 249.55 202.06 255.44 196.28 261.25 190.22 267.31 184.18 273.63 178.21 279.89 172.03 286.41 165.99 293.21 160.16 299.97 154.28 307 148.73 314.31 143.6 321.59 138.62 329.14 134.2 336.96 130.45 344.76 127.04 352.82 124.41 361.15 122.65 369.46 121.37 378.03 121.01 386.86 121.61"
      stroke-dasharray="10 7" transform="rotate(8.08, 400, 400)" opacity="0.73"></path>
    <path
      d="M390.83 132.22C399.37 133.29 407.99 135.2 416.66 137.88 425.35 140.88 434.12 144.51 442.94 148.69 451.8 152.98 460.73 157.68 469.72 162.68 478.77 167.59 487.88 172.7 497.05 177.93 506.26 182.93 515.53 187.98 524.8 193.05 534.11 197.8 543.41 202.56 552.63 207.31 561.83 211.73 570.91 216.18 579.78 220.67 588.54 224.87 597 229.17 605.07 233.59 612.88 237.8 620.18 242.18 626.88 246.77 633.17 251.23 638.73 255.94 643.46 260.93 647.67 265.84 650.97 271.06 653.31 276.6 655.07 282.11 655.86 287.95 655.67 294.12 655 300.28 653.44 306.77 651.06 313.58 648.43 320.39 645.19 327.51 641.45 334.93 637.82 342.35 633.97 350.05 630.03 358.03 626.61 366.01 623.38 374.25 620.44 382.76 618.35 391.27 616.76 399.84 615.68 408.47 615.49 417.11 615.74 425.81 616.37 434.58 617.72 443.37 619.26 452.25 620.88 461.2 622.91 470.22 624.77 479.32 626.36 488.51 628.04 497.77 629.23 507.13 629.83 516.55 630.26 526.04 629.96 535.58 628.91 545.12 627.52 554.68 625.31 564.18 622.3 573.55 618.89 582.82 614.71 591.86 609.8 600.55 604.52 608.99 598.58 616.95 592.06 624.29 585.26 631.19 577.95 637.33 570.23 642.6 562.32 647.25 554.08 650.92 545.57 653.53 536.96 655.45 528.15 656.3 519.2 656.07 510.22 655.26 501.13 653.49 492.01 650.83 482.88 647.91 473.72 644.36 464.58 640.34 455.45 636.51 446.34 632.55 437.27 628.63 428.22 625.4 419.21 622.53 410.26 620.14 401.31 618.8 392.63 618.12 384.21 618.07 375.78 619.03 367.59 620.49 359.65 622.33 351.68 624.87 343.94 627.52 336.43 630.11 328.86 632.97 321.5 635.48 314.35 637.48 307.12 639.34 300.07 640.46 293.21 640.76 286.24 640.64 279.43 639.57 272.78 637.56 266.02 635 259.39 631.49 252.91 627.09 246.3 622.17 239.82 616.43 233.5 609.97 227.05 603.09 220.75 595.62 214.62 587.65 208.4 579.41 202.37 570.79 196.56 561.88 190.7 552.84 185.1 543.61 179.79 534.26 174.49 524.86 169.53 515.41 164.96 505.96 160.47 496.52 156.4 487.1 152.81 477.74 149.37 468.41 146.44 459.15 144.07 449.99 141.9 440.86 140.31 431.81 139.33 422.88 138.58 413.97 138.45 405.15 138.97 396.47 139.69 387.78 141.02 379.41 142.9 371.37 144.94 363.32 147.48 355.58 150.49 348.16 153.56 340.72 157.05 333.58 160.89 326.76 164.72 319.91 168.87 313.35 173.29 307.08 177.62 300.75 182.19 294.69 186.96 288.88 191.6 282.98 196.41 277.3 201.39 271.82 206.2 266.2 211.17 260.73 216.28 255.39 221.23 249.85 226.33 244.4 231.59 239.02 236.7 233.39 241.98 227.78 247.44 222.2 252.78 216.35 258.32 210.5 264.07 204.68 269.72 198.62 275.61 192.6 281.73 186.68 287.78 180.59 294.08 174.67 300.63 168.98 307.13 163.28 313.9 157.92 320.93 152.99 327.92 148.22 335.19 144.01 342.71 140.45 350.2 137.23 357.97 134.76 365.99 133.11 374 131.92 382.28 131.62 390.82 132.22"
      stroke-dasharray="9 1" transform="rotate(12.12, 400, 400)" opacity="0.08"></path>
    <path
      d="M395.18 142.83C403.44 143.87 411.78 145.71 420.18 148.28 428.59 151.16 437.09 154.65 445.64 158.67 454.22 162.82 462.88 167.37 471.58 172.23 480.32 177.04 489.12 182.06 497.94 187.22 506.79 192.19 515.66 197.23 524.51 202.31 533.36 207.11 542.16 211.93 550.85 216.75 559.48 221.27 567.95 225.82 576.17 230.39 584.24 234.7 591.99 239.08 599.32 243.55 606.38 247.81 612.93 252.21 618.88 256.78 624.43 261.21 629.29 265.85 633.36 270.72 638.33 278.03 643.18 293.96 643.02 302.63 642.23 308.49 640.65 314.67 638.35 321.14 635.86 327.61 632.83 334.38 629.36 341.44 626.02 348.5 622.48 355.85 618.85 363.49 615.71 371.12 612.72 379.03 609.97 387.22 607.99 395.42 606.43 403.71 605.31 412.07 604.99 420.44 605.05 428.91 605.44 437.45 606.5 446.01 607.72 454.67 609.02 463.41 610.73 472.19 612.32 481.06 613.68 489.99 615.16 498.98 616.23 508.03 616.8 517.11 617.27 526.22 617.1 535.34 616.28 544.41 615.18 553.44 613.36 562.37 610.81 571.1 607.94 579.7 604.34 588.01 600.07 595.93 595.47 603.58 590.24 610.71 584.44 617.22 578.38 623.29 571.82 628.62 564.83 633.11 557.65 637.03 550.11 640.04 542.28 642.07 534.34 643.5 526.17 643.96 517.82 643.45 509.41 642.47 500.88 640.64 492.26 638.04 483.63 635.24 474.94 631.91 466.23 628.16 457.52 624.63 448.8 620.99 440.1 617.39 431.41 614.42 422.73 611.77 414.1 609.54 405.46 608.25 397.06 607.53 388.9 607.37 380.72 608.12 372.77 609.32 365.04 610.86 357.28 613.06 349.72 615.37 342.38 617.65 334.98 620.23 327.77 622.52 320.74 624.39 313.64 626.2 306.71 627.37 299.94 627.84 293.08 627.98 286.36 627.29 279.79 625.76 273.11 623.77 266.57 620.91 260.16 617.22 253.65 613.06 247.26 608.13 241.02 602.5 234.68 596.49 228.49 589.86 222.48 582.73 216.39 575.31 210.49 567.49 204.82 559.34 199.12 551.03 193.67 542.48 188.51 533.76 183.39 524.97 178.59 516.08 174.18 507.14 169.85 498.18 165.95 489.21 162.5 480.27 159.21 471.34 156.41 462.46 154.15 453.65 152.09 444.86 150.59 436.15 149.69 427.54 148.99 418.94 148.9 410.44 149.43 402.07 150.17 393.69 151.48 385.61 153.34 377.85 155.34 370.08 157.83 362.61 160.77 355.44 163.78 348.25 167.19 341.34 170.96 334.72 174.71 328.06 178.78 321.67 183.12 315.53 187.38 309.33 191.88 303.37 196.58 297.62 201.15 291.77 205.91 286.11 210.82 280.62 215.58 274.97 220.5 269.46 225.56 264.05 230.46 258.45 235.51 252.91 240.7 247.44 245.75 241.73 250.96 236.05 256.33 230.4 261.58 224.5 267.01 218.63 272.64 212.81 278.16 206.77 283.9 200.82 289.84 194.97 295.72 189.01 301.82 183.24 308.16 177.72 314.45 172.21 320.98 167.06 327.76 162.34 334.5 157.81 341.5 153.81 348.74 150.45 355.97 147.42 363.45 145.1 371.19 143.58 378.92 142.48 386.91 142.22 395.17 142.82"
      stroke-dasharray="1 11" transform="rotate(16.16, 400, 400)" opacity="0.29"></path>
    <path
      d="M399.73 153.43C407.69 154.44 415.74 156.21 423.85 158.67 431.97 161.42 440.17 164.77 448.42 168.62 456.69 172.62 465.02 177.01 473.38 181.72 481.77 186.4 490.19 191.31 498.61 196.38 507.05 201.29 515.47 206.3 523.83 211.36 532.17 216.19 540.42 221.04 548.53 225.91 556.55 230.52 564.37 235.15 571.91 239.8 579.3 244.2 586.33 248.67 592.93 253.2 599.27 257.53 605.09 261.97 610.31 266.55 617.28 273.28 627.01 287.56 629.6 295.2 630.75 303.01 628.67 319.93 625.68 329.07 623.34 335.25 620.53 341.71 617.32 348.46 614.27 355.2 611.03 362.23 607.71 369.55 604.83 376.85 602.07 384.45 599.51 392.33 597.63 400.21 596.11 408.2 594.95 416.28 594.52 424.37 594.41 432.56 594.59 440.82 595.37 449.11 596.3 457.5 597.3 465.95 598.7 474.43 600.01 482.98 601.13 491.58 602.4 500.21 603.32 508.87 603.83 517.52 604.28 526.17 604.2 534.78 603.53 543.29 602.66 551.74 601.15 560.02 599 568.07 596.57 575.95 593.49 583.5 589.78 590.63 585.79 597.47 581.21 603.79 576.08 609.49 570.72 614.77 564.86 619.34 558.56 623.1 552.09 626.37 545.25 628.78 538.09 630.3 530.82 631.32 523.29 631.46 515.55 630.73 507.75 629.63 499.79 627.78 491.7 625.26 483.6 622.62 475.4 619.5 467.14 616.04 458.89 612.8 450.59 609.47 442.28 606.17 433.97 603.46 425.66 601.01 417.35 598.93 409.05 597.69 400.95 596.95 393.05 596.68 385.14 597.25 377.43 598.2 369.91 599.46 362.37 601.34 355.01 603.32 347.83 605.3 340.61 607.59 333.55 609.64 326.65 611.36 319.7 613.07 312.88 614.25 306.22 614.82 299.48 615.15 292.86 614.75 286.38 613.61 279.82 612.1 273.37 609.8 267.06 606.74 260.66 603.28 254.38 599.1 248.25 594.24 242.04 589.04 235.98 583.23 230.1 576.91 224.17 570.32 218.42 563.29 212.91 555.91 207.38 548.35 202.11 540.52 197.13 532.48 192.19 524.35 187.57 516.07 183.33 507.7 179.19 499.29 175.45 490.83 172.16 482.37 169.03 473.9 166.37 465.44 164.23 457.04 162.28 448.64 160.88 440.3 160.04 432.04 159.41 423.79 159.36 415.62 159.9 407.56 160.64 399.49 161.94 391.72 163.75 384.23 165.71 376.73 168.14 369.51 171.01 362.56 173.95 355.59 177.27 348.88 180.94 342.43 184.62 335.93 188.6 329.67 192.84 323.64 197.02 317.54 201.43 311.63 206.05 305.92 210.56 300.1 215.24 294.44 220.09 288.92 224.8 283.25 229.66 277.68 234.65 272.21 239.5 266.55 244.5 260.95 249.63 255.4 254.62 249.64 259.76 243.91 265.05 238.22 270.22 232.32 275.57 226.46 281.08 220.67 286.49 214.71 292.09 208.84 297.89 203.11 303.62 197.31 309.55 191.71 315.7 186.38 321.79 181.1 328.12 176.18 334.67 171.68 341.18 167.38 347.94 163.61 354.93 160.45 361.9 157.61 369.12 155.46 376.58 154.05 384.04 153.05 391.75 152.83 399.72 153.43"
      stroke-dasharray="6 6" transform="rotate(20.200000000000003, 400, 400)" opacity="0.55"></path>
    <path
      d="M404.28 164.04C411.95 165.02 419.7 166.71 427.49 169.05 435.3 171.68 443.17 174.87 451.08 178.55 459 182.38 466.96 186.6 474.94 191.14 482.93 195.68 490.93 200.45 498.9 205.41 506.87 210.24 514.79 215.18 522.62 220.2 530.42 225.02 538.09 229.89 545.57 234.79 552.97 239.45 560.12 244.14 566.98 248.85 573.67 253.34 580 257.88 585.89 262.48 591.53 266.88 596.66 271.37 601.21 275.98 607.24 282.73 615.43 296.89 617.45 304.38 618.22 311.99 615.91 328.36 613.06 337.16 610.89 343.08 608.29 349.28 605.36 355.75 602.58 362.21 599.62 368.95 596.59 375.96 593.96 382.96 591.42 390.25 589.04 397.82 587.27 405.39 585.78 413.07 584.61 420.84 584.08 428.62 583.82 436.49 583.8 444.45 584.33 452.41 584.99 460.46 585.72 468.56 586.83 476.68 587.86 484.85 588.73 493.04 589.79 501.24 590.55 509.43 590.96 517.58 591.36 525.69 591.3 533.73 590.74 541.62 590.04 549.42 588.77 557.01 586.93 564.33 584.88 571.47 582.23 578.25 579.01 584.6 575.57 590.66 571.56 596.19 567.04 601.11 562.31 605.65 557.1 609.51 551.47 612.63 545.67 615.3 539.5 617.19 532.99 618.27 526.38 618.93 519.49 618.81 512.36 617.94 505.17 616.76 497.78 614.93 490.25 612.52 482.68 610.04 475 607.16 467.22 603.97 459.44 601.02 451.58 597.99 443.68 594.98 435.78 592.51 427.85 590.26 419.89 588.32 411.94 587.14 404.15 586.37 396.53 586.02 388.91 586.42 381.45 587.14 374.16 588.14 366.85 589.71 359.69 591.38 352.69 593.06 345.65 595.06 338.76 596.87 332.01 598.4 325.21 599.98 318.53 601.12 311.99 601.74 305.38 602.19 298.89 602.02 292.53 601.19 286.09 600.06 279.77 598.24 273.57 595.73 267.31 592.89 261.17 589.37 255.17 585.22 249.12 580.76 243.22 575.73 237.49 570.18 231.74 564.38 226.17 558.14 220.83 551.52 215.5 544.73 210.42 537.63 205.63 530.29 200.9 522.84 196.48 515.21 192.43 507.46 188.48 499.64 184.92 491.74 181.8 483.8 178.83 475.84 176.32 467.85 174.31 459.89 172.48 451.93 171.17 443.99 170.4 436.11 169.83 428.23 169.82 420.41 170.37 412.67 171.11 404.93 172.38 397.45 174.15 390.23 176.06 383 178.42 376.01 181.2 369.27 184.06 362.51 187.29 355.97 190.86 349.67 194.44 343.31 198.31 337.17 202.45 331.21 206.54 325.19 210.86 319.34 215.37 313.64 219.8 307.85 224.41 302.18 229.17 296.62 233.81 290.93 238.6 285.33 243.53 279.8 248.32 274.11 253.26 268.46 258.32 262.87 263.25 257.1 268.33 251.36 273.54 245.66 278.64 239.8 283.89 234 289.3 228.27 294.62 222.42 300.11 216.69 305.77 211.11 311.36 205.5 317.14 200.1 323.12 194.99 329.04 189.94 335.17 185.26 341.52 181.01 347.82 176.96 354.35 173.42 361.1 170.46 367.83 167.81 374.79 165.82 381.99 164.53 389.17 163.62 396.6 163.44 404.27 164.04"
      stroke-dasharray="10 8" transform="rotate(24.24, 400, 400)" opacity="0.76"></path>
    <path
      d="M408.66 174.65C416.03 175.59 423.45 177.2 430.91 179.43 438.37 181.92 445.89 184.96 453.42 188.46 460.96 192.11 468.52 196.15 476.07 200.51 483.63 204.88 491.16 209.51 498.65 214.32 506.11 219.04 513.5 223.89 520.77 228.84 527.99 233.62 535.05 238.47 541.9 243.36 548.65 248.05 555.15 252.78 561.33 257.53 567.34 262.08 572.99 266.68 578.19 271.33 583.17 275.8 587.66 280.35 591.59 284.99 596.77 291.79 603.59 305.89 605.14 313.28 605.61 320.75 603.18 336.67 600.49 345.17 598.49 350.89 596.12 356.86 593.45 363.08 590.93 369.28 588.26 375.74 585.5 382.47 583.11 389.18 580.78 396.17 578.57 403.42 576.9 410.67 575.47 418.02 574.28 425.46 573.67 432.9 573.28 440.43 573.09 448.02 573.39 455.62 573.8 463.29 574.27 470.98 575.1 478.68 575.86 486.41 576.5 494.12 577.33 501.82 577.92 509.48 578.21 517.06 578.52 524.59 578.45 532 577.94 539.23 577.35 546.35 576.26 553.23 574.67 559.82 572.92 566.21 570.63 572.23 567.84 577.8 563.1 585.5 550.91 597.56 543.59 601.69 538.42 603.84 532.87 605.29 526.99 606 521.01 606.38 514.74 606.06 508.21 605.08 501.62 603.87 494.81 602.1 487.83 599.82 480.82 597.52 473.65 594.87 466.37 591.96 459.07 589.29 451.67 586.54 444.2 583.82 436.73 581.58 429.19 579.52 421.6 577.72 414.02 576.59 406.56 575.81 399.25 575.38 391.93 575.62 384.74 576.14 377.69 576.9 370.63 578.18 363.69 579.55 356.89 580.94 350.06 582.65 343.35 584.21 336.76 585.54 330.14 586.97 323.62 588.02 317.22 588.63 310.78 589.14 304.43 589.12 298.21 588.53 291.93 587.72 285.76 586.29 279.71 584.24 273.61 581.92 267.63 578.99 261.8 575.48 255.93 571.69 250.21 567.36 244.67 562.54 239.11 557.49 233.75 551.99 228.61 546.12 223.5 540.07 218.63 533.7 214.05 527.07 209.53 520.32 205.33 513.36 201.48 506.23 197.73 499.05 194.37 491.74 191.42 484.34 188.62 476.93 186.26 469.45 184.38 461.96 182.67 454.46 181.46 446.96 180.76 439.48 180.26 432 180.28 424.55 180.83 417.15 181.57 409.75 182.82 402.57 184.53 395.62 186.39 388.65 188.68 381.9 191.36 375.36 194.13 368.8 197.26 362.43 200.71 356.26 204.18 350.04 207.94 344 211.95 338.12 215.93 332.17 220.14 326.36 224.55 320.69 228.88 314.92 233.39 309.25 238.06 303.68 242.62 297.99 247.33 292.37 252.18 286.81 256.91 281.11 261.77 275.46 266.75 269.86 271.62 264.1 276.62 258.4 281.75 252.74 286.78 246.96 291.95 241.25 297.26 235.64 302.48 229.94 307.86 224.37 313.39 218.98 318.86 213.58 324.49 208.42 330.31 203.54 336.07 198.76 342.02 194.33 348.17 190.33 354.28 186.53 360.59 183.23 367.1 180.48 373.6 178.02 380.31 176.18 387.23 175.01 394.15 174.19 401.29 174.06 408.65 174.65"
      stroke-dasharray="5 10" transform="rotate(28.28, 400, 400)" opacity="0.94"></path>
    <path
      d="M412.68 185.25C419.72 186.16 426.81 187.69 433.91 189.8 441.01 192.16 448.14 195.03 455.27 198.35 462.4 201.81 469.53 205.66 476.63 209.82 483.72 214.02 490.76 218.46 497.72 223.11 504.66 227.7 511.49 232.43 518.17 237.28 524.8 241.99 531.25 246.79 537.47 251.64 543.58 256.32 549.43 261.05 554.95 265.81 560.31 270.4 565.3 275.04 569.87 279.72 576.17 286.54 585.92 300.33 589.21 307.39 591.54 314.41 592.94 329.09 592.08 336.82 590.49 344.65 585.1 361.32 581.6 370.19 579.34 376.15 576.93 382.36 574.44 388.8 572.28 395.24 570.15 401.92 568.11 408.85 566.54 415.77 565.15 422.78 563.97 429.86 563.29 436.94 562.79 444.09 562.44 451.28 562.54 458.48 562.73 465.71 562.97 472.95 563.53 480.18 564.04 487.41 564.45 494.59 565.06 501.75 565.46 508.84 565.61 515.81 565.82 522.72 565.69 529.47 565.2 536.02 564.66 542.44 563.7 548.61 562.29 554.46 559.78 562.76 552.21 576.88 547.18 582.46 541.49 587.02 527.91 592.59 520.14 593.54 514.75 593.69 509.07 593.23 503.12 592.19 497.12 590.99 490.88 589.3 484.44 587.17 477.97 585.06 471.33 582.65 464.54 580.02 457.74 577.61 450.81 575.14 443.79 572.68 436.75 570.65 429.63 568.78 422.43 567.11 415.22 566.04 408.12 565.25 401.12 564.76 394.12 564.86 387.23 565.2 380.44 565.73 373.65 566.74 366.96 567.84 360.38 568.95 353.77 570.38 347.27 571.68 340.88 572.81 334.45 574.05 328.12 574.98 321.9 575.55 315.64 576.07 309.47 576.14 303.42 575.71 297.32 575.13 291.33 574.01 285.46 572.35 279.55 570.47 273.77 568.04 268.13 565.08 262.47 561.89 256.96 558.2 251.63 554.03 246.3 549.67 241.17 544.88 236.26 539.7 231.38 534.37 226.74 528.71 222.39 522.76 218.11 516.71 214.13 510.41 210.49 503.93 206.96 497.38 203.8 490.67 201.03 483.84 198.41 476.99 196.21 470.05 194.46 463.05 192.88 456.04 191.76 449 191.14 441.94 190.69 434.88 190.74 427.82 191.3 420.77 192.03 413.72 193.24 406.85 194.9 400.17 196.69 393.48 198.9 386.96 201.48 380.63 204.15 374.27 207.16 368.07 210.48 362.03 213.83 355.95 217.46 350.02 221.34 344.22 225.2 338.35 229.29 332.6 233.56 326.96 237.79 321.24 242.19 315.59 246.74 310.03 251.21 304.36 255.82 298.76 260.56 293.21 265.21 287.54 269.99 281.92 274.88 276.36 279.67 270.67 284.59 265.04 289.63 259.48 294.58 253.82 299.65 248.24 304.86 242.79 309.98 237.27 315.25 231.91 320.65 226.74 326 221.59 331.49 216.68 337.15 212.07 342.76 207.55 348.53 203.4 354.48 199.66 360.4 196.11 366.5 193.04 372.78 190.51 379.04 188.24 385.5 186.56 392.15 185.5 398.79 184.76 405.63 184.67 412.67 185.25"
      stroke-dasharray="6 9" transform="rotate(32.32, 400, 400)" opacity="0.88"></path>
    <path
      d="M416.18 195.86C422.88 196.73 429.61 198.18 436.33 200.17 443.05 202.39 449.77 205.09 456.48 208.22 463.18 211.49 469.85 215.13 476.46 219.09 483.06 223.09 489.59 227.34 496.01 231.8 502.4 236.23 508.67 240.82 514.76 245.52 520.8 250.14 526.63 254.84 532.23 259.62 537.72 264.26 542.94 268.95 547.83 273.7 552.57 278.29 556.96 282.93 560.94 287.62 566.4 294.47 574.7 308.31 577.43 315.36 579.32 322.36 580.25 336.88 579.35 344.46 577.85 352.12 572.96 368.29 569.82 376.84 567.81 382.59 565.65 388.54 563.41 394.71 561.46 400.86 559.53 407.24 557.64 413.83 556.17 420.42 554.84 427.07 553.67 433.76 552.94 440.46 552.34 447.2 551.86 453.96 551.78 460.71 551.77 467.48 551.79 474.22 552.12 480.95 552.39 487.65 552.59 494.27 552.97 500.85 553.18 507.33 553.18 513.67 553.17 522.98 551.58 540.35 549.87 548.21 547.64 555.46 540.98 567.57 536.54 572.24 531.52 576 519.45 580.35 512.49 580.91 505.09 580.61 488.84 577.33 480.09 574.58 474.15 572.67 468.03 570.49 461.74 568.13 455.43 565.98 448.98 563.77 442.4 561.56 435.82 559.75 429.12 558.05 422.32 556.5 415.52 555.49 408.78 554.7 402.13 554.16 395.47 554.14 388.89 554.31 382.39 554.64 375.89 555.4 369.46 556.24 363.13 557.09 356.78 558.24 350.52 559.3 344.34 560.2 338.15 561.25 332.04 562.04 326.02 562.52 319.97 563.01 314.02 563.11 308.17 562.79 302.29 562.37 296.51 561.48 290.85 560.12 285.17 558.6 279.61 556.58 274.2 554.09 268.78 551.42 263.51 548.29 258.41 544.71 253.33 540.97 248.45 536.81 243.78 532.29 239.16 527.63 234.78 522.63 230.67 517.34 226.63 511.95 222.89 506.31 219.47 500.45 216.17 494.53 213.21 488.43 210.63 482.18 208.19 475.9 206.15 469.5 204.54 463.01 203.08 456.5 202.07 449.93 201.51 443.31 201.13 436.69 201.21 430.02 201.77 423.34 202.49 416.66 203.66 410.12 205.26 403.72 206.98 397.32 209.09 391.05 211.56 384.92 214.12 378.78 217 372.76 220.19 366.87 223.41 360.95 226.9 355.13 230.63 349.43 234.35 343.67 238.3 338 242.43 332.42 246.52 326.76 250.79 321.18 255.21 315.66 259.56 310.06 264.06 304.5 268.69 299.01 273.24 293.42 277.91 287.88 282.69 282.4 287.39 276.83 292.21 271.32 297.14 265.89 302 260.4 306.97 255.01 312.06 249.75 317.07 244.46 322.22 239.34 327.49 234.42 332.7 229.54 338.06 224.9 343.55 220.57 349 216.34 354.6 212.47 360.35 208.99 366.07 205.71 371.95 202.88 377.99 200.55 384.02 198.48 390.21 196.95 396.58 196 402.93 195.34 409.47 195.29 416.17 195.86"
      stroke-dasharray="3 1" transform="rotate(36.36, 400, 400)" opacity="0.84"></path>
    <path
      d="M419.01 206.47C425.36 207.29 431.7 208.66 438.03 210.53 444.35 212.61 450.65 215.14 456.91 218.08 469.4 224.34 481.66 231.9 493.45 240.4 505.1 248.84 516.11 257.9 526.19 267.31 535.88 276.31 544.4 285.57 551.44 295.01 557.85 303.96 562.57 313.18 565.44 322.67 567.64 331.79 568.03 341.36 566.66 351.4 565.03 361.25 562.09 371.72 558.11 382.82 556.33 388.35 554.41 394.06 552.4 399.94 550.66 405.81 548.9 411.87 547.17 418.11 545.8 424.35 544.54 430.63 543.38 436.92 542.61 443.22 541.93 449.53 541.35 455.82 541.21 468.4 541.14 480.87 540.91 492.99 541.42 504.93 541.21 516.3 540.05 526.78 538.96 536.8 536.53 545.6 532.71 552.85 528.59 559.32 522.98 563.99 515.98 566.63 508.65 568.46 500.04 568.35 490.33 566.4 480.42 564.17 469.58 560.69 457.99 556.31 452.17 554.41 446.19 552.45 440.07 550.47 433.94 548.85 427.67 547.31 421.29 545.89 414.9 544.94 408.55 544.16 402.26 543.57 395.96 543.44 389.71 543.47 383.53 543.62 371.15 545.07 359 546.56 347.17 547.76 335.29 549.55 323.69 550.33 312.48 549.83 301.21 549.1 290.34 546.7 280.02 542.63 269.72 538 260.05 531.7 251.21 523.94 242.57 515.72 234.9 506.24 228.44 495.8 222.41 485.11 217.73 473.68 214.63 461.73 213.3 455.74 212.38 449.65 211.9 443.47 211.57 437.3 211.68 431.05 212.23 424.75 212.94 418.45 214.07 412.24 215.6 406.14 217.24 400.04 219.25 394.04 221.61 388.14 226.54 376.3 232.69 364.81 239.81 353.69 246.95 342.4 254.9 331.35 263.47 320.56 271.85 309.51 280.79 298.62 290.16 288 299.26 277.14 308.83 266.58 318.8 256.55 328.52 246.51 338.74 237.24 349.41 229.06 359.93 221.34 371.01 215.07 382.61 210.61 388.39 208.72 394.31 207.34 400.38 206.5 406.44 205.93 412.65 205.91 419 206.47"
      stroke-dasharray="8 2" transform="rotate(40.400000000000006, 400, 400)" opacity="0.19"></path>
    <path
      d="M421.05 217.08C433.01 218.87 444.86 222.59 456.46 227.92 468.03 233.77 479.27 240.88 489.98 248.9 500.55 256.96 510.42 265.64 519.35 274.73 527.93 283.52 535.37 292.6 541.43 301.88 546.95 310.76 550.95 319.89 553.28 329.26 555.1 338.31 555.33 347.73 554.03 357.53 552.58 367.16 549.98 377.3 546.46 387.95 543.5 398.54 540.17 409.73 536.71 421.49 534.49 433.25 532.55 445.03 530.9 456.68 530.45 468.3 530.02 479.69 529.43 490.63 529.54 501.39 529.04 511.5 527.73 520.68 526.57 529.44 524.27 537 520.77 543.1 517.08 548.54 512.07 552.34 505.8 554.35 499.28 555.73 491.56 555.43 482.8 553.54 473.87 551.52 464 548.42 453.36 544.54 442.67 541.45 431.3 538.27 419.38 535.29 407.46 533.9 395.59 533.05 383.9 532.68 372.21 533.68 360.67 534.7 349.41 535.48 338.12 536.87 327.07 537.42 316.4 536.89 305.71 536.29 295.4 534.26 285.64 530.77 275.93 526.89 266.85 521.5 258.57 514.75 250.51 507.63 243.38 499.3 237.41 489.98 231.84 480.46 227.55 470.12 224.73 459.19 222.46 448.2 221.74 436.72 222.7 424.91 224.21 413.09 227.25 401.5 231.62 390.22 236.3 378.9 242.13 367.81 248.89 357 255.71 346.07 263.31 335.3 271.53 324.78 279.61 314.05 288.24 303.49 297.29 293.23 306.13 282.81 315.41 272.74 325.05 263.23 334.5 253.8 344.39 245.14 354.67 237.56 364.83 230.45 375.46 224.73 386.53 220.69 397.55 217.51 409.08 216.24 421.04 217.07"
      stroke-dasharray="7 4" transform="rotate(44.44, 400, 400)" opacity="0.17"></path>
    <path
      d="M422.22 227.68C433.41 229.37 444.41 232.82 455.08 237.75 465.72 243.19 475.95 249.82 485.6 257.34 495.11 264.95 503.9 273.21 511.76 281.9 519.32 290.39 525.78 299.21 530.97 308.24 535.72 316.96 539.1 325.93 541 335.1 542.52 344.01 542.66 353.23 541.47 362.75 540.22 372.12 537.97 381.89 534.89 392.06 532.32 402.18 529.38 412.78 526.24 423.79 524.17 434.8 522.25 445.72 520.51 456.4 519.8 467.03 519.06 477.35 518.16 487.13 517.89 496.74 517.11 505.64 515.64 513.6 513.25 524.42 503.24 538.82 495.33 541.86 489.51 542.91 482.59 542.5 474.68 540.73 466.64 538.96 457.69 536.25 447.97 532.85 438.19 530.18 427.72 527.38 416.67 524.68 405.61 523.35 394.53 522.4 383.56 521.81 372.59 522.41 361.73 523.01 351.1 523.38 340.46 524.37 330.05 524.65 319.97 524.04 309.92 523.47 300.24 521.69 291.08 518.65 282.02 515.35 273.56 510.71 265.88 504.84 258.42 498.68 251.86 491.37 246.38 483.1 241.28 474.64 237.38 465.36 234.85 455.41 232.82 445.4 232.21 434.83 233.17 423.82 234.62 412.81 237.49 401.89 241.61 391.16 246.02 380.41 251.51 369.8 257.89 359.39 264.34 348.88 271.56 338.51 279.38 328.34 287.11 318.05 295.38 307.93 304.06 298.12 312.58 288.24 321.52 278.73 330.79 269.82 339.92 261.04 349.44 253.04 359.28 246.08 369.03 239.59 379.19 234.41 389.69 230.79 400.15 227.94 411.02 226.85 422.22 227.68"
      stroke-dasharray="5 8" transform="rotate(48.48, 400, 400)" opacity="0.43"></path>
    <path
      d="M422.47 238.29C432.87 239.86 443 243.04 452.74 247.59 462.44 252.59 471.69 258.72 480.32 265.72 488.83 272.84 496.6 280.62 503.47 288.85 510.09 296.96 515.69 305.43 520.12 314.12 524.21 322.59 527.07 331.31 528.65 340.2 529.95 348.89 530.05 357.84 529 367 527.96 376.06 526.04 385.43 523.37 395.08 521.18 404.69 518.6 414.65 515.77 424.89 513.85 435.13 511.97 445.17 510.17 454.88 509.26 464.54 508.26 473.8 507.08 482.46 506.49 490.97 505.43 498.75 503.8 505.59 501.29 514.86 491.88 526.85 484.7 529.22 479.47 530.03 473.24 529.6 466.11 528.01 458.87 526.48 450.78 524.16 441.93 521.22 433.04 518.95 423.45 516.51 413.26 514.07 403.08 512.81 392.81 511.79 382.6 511 372.41 511.26 362.28 511.47 352.33 511.48 342.41 512.07 332.68 512.07 323.27 511.33 313.91 510.71 304.91 509.07 296.41 506.36 288.03 503.5 280.23 499.47 273.17 494.34 266.34 488.99 260.35 482.59 255.37 475.25 250.75 467.78 247.24 459.47 244.99 450.46 243.18 441.4 242.69 431.72 243.63 421.53 245.02 411.34 247.72 401.14 251.57 391.03 255.68 380.9 260.82 370.83 266.79 360.91 272.86 350.93 279.67 341.04 287.04 331.35 294.38 321.58 302.24 312 310.49 302.75 318.63 293.49 327.18 284.63 336.02 276.36 344.76 268.28 353.85 260.96 363.21 254.65 372.5 248.78 382.13 244.13 392.02 240.92 401.89 238.4 412.07 237.47 422.47 238.29"
      stroke-dasharray="6 4" transform="rotate(52.52, 400, 400)" opacity="0.90"></path>
    <path
      d="M421.79 248.9C431.38 250.35 440.64 253.26 449.46 257.41 458.24 261.98 466.54 267.6 474.2 274.05 481.76 280.64 488.59 287.89 494.57 295.6 500.35 303.25 505.19 311.28 508.97 319.55 512.5 327.67 514.95 336.03 516.27 344.55 517.41 352.93 517.52 361.52 516.63 370.28 515.8 378.95 514.2 387.85 511.93 396.94 510.07 406 507.83 415.29 505.3 424.75 503.54 434.2 501.72 443.35 499.89 452.1 498.81 460.82 497.6 469.05 496.21 476.66 495.33 484.14 494.04 490.89 492.26 496.74 489.6 504.64 480.63 514.63 474.05 516.5 469.31 517.16 463.7 516.76 457.26 515.37 450.74 514.11 443.44 512.16 435.42 509.66 427.36 507.75 418.63 505.64 409.31 503.47 400 502.27 390.57 501.21 381.15 500.27 371.76 500.23 362.4 500.1 353.21 499.78 344.04 500 335.05 499.72 326.37 498.82 317.75 498.1 309.47 496.52 301.67 494.04 294.01 491.49 286.89 487.94 280.47 483.42 274.28 478.75 268.87 473.13 264.4 466.63 260.25 460.02 257.12 452.61 255.14 444.49 253.56 436.33 253.18 427.53 254.1 418.17 255.42 408.81 257.93 399.35 261.5 389.91 265.32 380.47 270.08 371.02 275.62 361.68 281.28 352.31 287.63 343.01 294.53 333.89 301.42 324.75 308.82 315.8 316.59 307.19 324.3 298.62 332.38 290.47 340.74 282.91 349.03 275.55 357.62 268.93 366.45 263.26 375.23 258.02 384.27 253.89 393.52 251.07 402.75 248.87 412.2 248.1 421.79 248.9"
      stroke-dasharray="3 7" transform="rotate(56.56, 400, 400)" opacity="0.23"></path>
    <path
      d="M420.21 259.5C428.97 260.84 437.35 263.48 445.28 267.23 453.17 271.37 460.55 276.47 467.31 282.34 473.98 288.38 479.96 295.05 485.15 302.18 490.18 309.31 494.35 316.82 497.59 324.58 500.65 332.26 502.77 340.17 503.91 348.23 504.94 356.2 505.09 364.35 504.38 372.61 503.76 380.82 502.46 389.19 500.55 397.66 499.01 406.12 497.08 414.71 494.84 423.36 493.22 432 491.48 440.28 489.67 448.11 488.47 455.9 487.1 463.17 485.53 469.81 483.67 479.25 478.21 493.86 474.18 498.69 469.57 502.22 456.63 504.16 448.27 502.85 442.41 501.85 435.83 500.26 428.59 498.17 421.33 496.59 413.43 494.79 404.98 492.86 396.53 491.74 387.94 490.65 379.36 489.61 370.79 489.31 362.25 488.9 353.84 488.29 345.47 488.17 337.27 487.62 329.35 486.55 321.5 485.69 313.98 484.12 306.92 481.79 299.99 479.46 293.58 476.27 287.82 472.24 282.26 468.13 277.44 463.16 273.47 457.4 269.79 451.56 267.03 444.96 265.32 437.68 263.96 430.37 263.68 422.42 264.57 413.89 265.8 405.36 268.13 396.68 271.4 387.97 274.91 379.27 279.29 370.52 284.39 361.84 289.6 353.16 295.47 344.54 301.85 336.09 308.26 327.65 315.14 319.42 322.38 311.52 329.6 303.71 337.16 296.31 344.97 289.49 352.75 282.88 360.79 276.97 369.03 271.95 377.23 267.31 385.65 263.69 394.21 261.26 402.75 259.35 411.46 258.73 420.21 259.5"
      stroke-dasharray="8 1" transform="rotate(60.599999999999994, 400, 400)" opacity="0.12"></path>
    <path
      d="M417.8 270.11C425.71 271.33 433.24 273.7 440.29 277.06 447.32 280.76 453.84 285.34 459.77 290.62 465.62 296.08 470.83 302.14 475.31 308.64 479.68 315.18 483.29 322.1 486.07 329.28 488.74 336.42 490.59 343.79 491.61 351.3 492.58 358.76 492.79 366.38 492.26 374.07 491.83 381.73 490.81 389.5 489.24 397.31 487.98 405.11 486.34 412.97 484.37 420.8 482.9 428.64 481.26 436.06 479.49 442.99 478.21 449.9 476.74 456.27 475.06 462.03 472.94 470.19 467.18 482.65 463.22 486.71 458.82 489.72 446.9 491.47 439.34 490.46 434.06 489.72 428.15 488.46 421.65 486.74 415.13 485.47 408.04 483.95 400.44 482.25 392.83 481.22 385.1 480.13 377.36 479.02 369.64 478.51 361.93 477.86 354.35 477.02 346.81 476.6 339.42 475.81 332.3 474.58 325.26 473.57 318.52 471.96 312.22 469.72 306.04 467.53 300.33 464.62 295.23 460.99 290.32 457.33 286.07 452.92 282.6 447.8 279.38 442.63 276.99 436.77 275.53 430.27 274.37 423.75 274.18 416.61 275.03 408.91 276.19 401.22 278.31 393.34 281.29 385.41 284.48 377.48 288.46 369.49 293.09 361.56 297.85 353.63 303.2 345.76 309.04 338.07 314.92 330.41 321.25 322.96 327.91 315.84 334.57 308.82 341.55 302.21 348.77 296.16 355.96 290.31 363.4 285.11 370.98 280.73 378.56 276.68 386.3 273.55 394.13 271.49 401.96 269.86 409.88 269.37 417.8 270.11"
      stroke-dasharray="11 10" transform="rotate(64.64, 400, 400)" opacity="0.62"></path>
    <path
      d="M414.65 280.72C421.72 281.82 428.4 283.92 434.62 286.9 440.82 290.16 446.53 294.21 451.68 298.9 456.79 303.76 461.3 309.18 465.17 315.02 468.96 320.92 472.08 327.19 474.5 333.71 476.84 340.23 478.48 346.98 479.42 353.86 480.35 360.72 480.63 367.71 480.28 374.76 480.03 381.79 479.26 388.9 478 395.99 476.99 403.09 475.62 410.19 473.9 417.2 472.59 424.21 471.05 430.79 469.35 436.88 467.28 445.73 462.48 460.5 459.55 466.23 452.49 474.17 437.45 478.92 430.61 478.21 425.86 477.71 420.57 476.75 414.77 475.39 408.96 474.38 402.64 473.13 395.88 471.64 389.11 470.7 382.23 469.63 375.34 468.48 368.47 467.83 361.61 467 354.87 465.97 348.18 465.3 341.63 464.3 335.33 462.94 329.1 461.77 323.16 460.12 317.62 457.95 309.7 454.49 296.63 444.57 291.8 438.04 289.02 433.46 286.98 428.27 285.77 422.5 284.8 416.71 284.69 410.36 285.5 403.49 286.56 396.62 288.48 389.57 291.16 382.45 294.02 375.33 297.59 368.16 301.75 361.02 306.02 353.91 310.85 346.86 316.11 339.98 321.43 333.15 327.16 326.53 333.2 320.23 339.26 314.04 345.61 308.24 352.17 302.95 358.74 297.86 365.51 293.37 372.4 289.61 379.29 286.13 386.31 283.47 393.38 281.75 400.45 280.39 407.57 280.01 414.65 280.72"
      stroke-dasharray="6 7" transform="rotate(68.68, 400, 400)" opacity="0.73"></path>
    <path
      d="M410.89 291.32C423.35 293.58 434.27 299.17 443.22 307.2 452.02 315.82 458.7 326.37 462.95 337.96 467.06 349.63 468.89 362.15 468.44 374.83 468.39 387.49 466.68 400.34 463.44 412.73 461.43 425.11 458.44 435.77 454.69 444.32 451.93 452.72 447.9 458.85 442.55 462.45 437.54 465.94 430.75 467.13 422.24 466.13 413.74 465.75 403.39 463.98 391.49 461.04 379.58 459.75 367.35 457.76 355.55 455.14 343.89 453.7 332.85 450.9 323.19 446.56 313.92 442.56 306.31 436.48 301.09 428.38 296.56 420.25 294.66 410.01 295.97 397.89 298.08 385.78 303.13 373.04 310.37 360.44 318.02 347.96 327.58 335.79 338.31 324.78 349.15 314.19 361.05 305.16 373.35 298.6 385.69 293 398.42 290.34 410.89 291.32"
      stroke-dasharray="4 1" transform="rotate(72.72, 400, 400)" opacity="0.70"></path>
    <path
      d="M406.68 301.93C417.48 303.87 426.86 308.65 434.51 315.53 442.06 322.92 447.8 332.03 451.5 342.11 455.15 352.32 456.92 363.32 456.76 374.45 456.96 385.6 455.68 396.87 452.97 407.62 451.18 418.37 448.37 427.53 444.78 434.81 441.95 442 437.98 447.25 432.92 450.39 428.16 453.53 421.95 454.78 414.37 454.21 406.81 454.17 397.76 452.88 387.45 450.43 377.14 449.23 366.61 447.22 356.51 444.54 346.53 442.77 337.14 439.83 328.98 435.64 321.15 431.77 314.78 426.22 310.47 419.02 306.71 411.85 305.2 402.91 306.43 392.4 308.31 381.89 312.69 370.87 318.97 360.02 325.61 349.29 333.92 338.9 343.28 329.58 352.77 320.65 363.2 313.11 373.96 307.72 384.77 303.1 395.88 300.98 406.68 301.93"
      stroke-dasharray="8 11" transform="rotate(76.76, 400, 400)" opacity="0.81"></path>
    <path
      d="M402.2 312.54C411.36 314.18 419.28 318.17 425.73 323.91 432.13 330.07 437.02 337.73 440.24 346.25 443.46 354.92 445.15 364.3 445.25 373.81 445.63 383.36 444.73 392.98 442.5 402.13 440.95 411.27 438.38 419.01 435.05 425.15 430.38 433.51 416.57 442.02 407.11 442.47 400.49 442.71 392.69 441.82 383.93 439.82 375.17 438.73 366.31 436.78 357.87 434.16 349.53 432.21 341.75 429.25 335.05 425.26 328.6 421.56 323.41 416.52 319.96 410.2 316.92 403.92 315.77 396.23 316.9 387.29 318.52 378.35 322.25 369.05 327.57 359.97 333.18 350.98 340.23 342.36 348.18 334.72 356.27 327.38 365.17 321.27 374.34 316.98 383.57 313.28 393.03 311.64 402.2 312.54"
      stroke-dasharray="7 1" transform="rotate(80.80000000000001, 400, 400)" opacity="0.44"></path>
    <path
      d="M397.62 323.15C405.17 324.49 411.7 327.71 417.03 332.35 422.34 337.32 426.44 343.53 429.22 350.49 432.03 357.58 433.61 365.29 433.89 373.13 434.4 381.02 433.8 388.97 432.04 396.53 429.59 407.28 421.14 422.59 415.21 426.95 408.73 430.16 391.6 431.07 381.08 429.22 373.82 428.25 366.59 426.45 359.77 423.99 353.01 422.01 346.77 419.15 341.45 415.47 336.31 412.02 332.22 407.53 329.57 402.09 327.2 396.68 326.36 390.21 327.37 382.81 328.73 375.42 331.79 367.82 336.16 360.47 340.75 353.2 346.54 346.31 353.08 340.27 359.73 334.46 367.07 329.69 374.64 326.4 382.26 323.54 390.07 322.33 397.62 323.15"
      stroke-dasharray="5 8" transform="rotate(84.84, 400, 400)" opacity="0.11"></path>
    <path
      d="M393.14 333.75C405.1 336.18 413.89 344.22 418.51 354.9 423.31 366.04 424.53 379.11 421.57 391.11 419.74 403.09 414.47 411.57 407.14 415.76 400.31 420.29 390.54 421.38 379 418.61 367.46 417.39 356.4 412.96 348.23 406.32 340.52 400.3 336.35 390.97 337.83 379.2 340.23 367.43 347.85 355.53 358.03 346.3 368.55 337.7 381.19 332.69 393.14 333.75"
      stroke-dasharray="8 1" transform="rotate(88.88, 400, 400)" opacity="0.60"></path>
    <path
      d="M388.95 344.36C397.82 346.09 404.48 351.86 408.17 359.6 411.99 367.64 413.17 377.2 411.1 386.13 409.65 395.05 405.41 401.56 399.58 405.03 394.03 408.74 386.43 409.91 377.8 408 369.17 406.96 361.16 403.23 355.42 397.81 349.93 392.77 347.06 385.43 348.3 376.63 350.07 367.84 355.64 359.29 363.1 352.87 370.78 346.81 380.08 343.41 388.95 344.36"
      stroke-dasharray="3 5" transform="rotate(92.92, 400, 400)" opacity="0.67"></path>
    <path
      d="M385.21 354.97C396.93 357.48 403.46 370.02 400.63 381.84 398.89 393.66 389.01 400.08 377.51 397.4 366.01 396.22 357.2 386.94 358.77 375.24 361.31 363.53 373.48 353.87 385.21 354.97"
      stroke-dasharray="2 2" transform="rotate(96.96, 400, 400)" opacity="0.29"></path>
  </g>
</svg>
