<!--https://fffuel.co/ccchaos/-->
<svg xmlns="http://www.w3.org/2000/svg" version="1.1" viewBox="0 0 800 800">
  <defs>
    <linearGradient x1="50%" y1="0%" x2="50%" y2="100%" id="ccchaos-grad">
      <stop stop-color="hsl(206, 75%, 49%)" stop-opacity="1" offset="0%"></stop>
      <stop stop-color="hsl(331, 90%, 56%)" stop-opacity="1" offset="100%"></stop>
    </linearGradient>
  </defs>
  <g stroke-width="2" stroke="url(#ccchaos-grad)" fill="none" stroke-linecap="round">
    <path
      d="M363.84 109.55C368.75 95.45 387.1 93.91 395.04 106.87Q400.56 115.06 406.49 123.34 412.8 131.72 419.48 140.2 426.47 148.8 433.72 157.51 441.18 166.33 448.78 175.27 456.47 184.32 464.17 193.49 471.82 202.77 479.35 212.16 486.69 221.66 493.77 231.26 500.53 240.96 506.92 250.75 512.89 260.62 518.39 270.57 523.4 280.59 527.88 290.67 531.83 300.79 535.24 310.96 538.11 321.15 540.46 331.35 542.33 341.56 543.74 351.76 544.75 361.94 545.41 372.08 545.79 382.18 545.95 392.22 545.97 402.18 545.93 412.06 545.91 421.85 545.99 431.52 546.26 441.07 546.79 450.5 547.67 459.78 548.95 468.92 550.7 477.9 552.97 486.71 555.81 495.36 559.26 503.83 563.33 512.12 568.04 520.23 573.39 528.15 579.35 535.89 585.91 543.44 593.02 550.82 600.64 558.02 608.71 565.04 617.15 571.9 625.9 578.59 634.85 585.14 643.93 591.54 653.04 597.82 662.08 603.97 670.96 610.02 679.59 615.98 687.87 621.86 695.73 627.68 709.54 639.2 721.48 650.69C728.1 659 717.22 678.6 702.95 687.63Q685.36 698.8 667.77 708.98 650.18 717.16 632.59 722.53 615 724.56 597.41 723.06 579.82 718.16 562.23 710.36 544.64 700.42 527.05 689.32 509.46 678.18 491.87 668.07 474.28 660.01 456.69 654.79 439.1 652.92 421.51 654.59 403.92 659.64 386.33 667.56 368.74 677.58 351.15 688.7 333.56 699.83 315.97 709.86 298.38 717.8 280.79 722.87 263.2 724.57 245.61 722.73 228.02 717.54 210.43 709.49 192.84 699.4 175.26 688.25 157.67 677.16 140.08 667.21C125.81 660.66 116.79 643.56 123.08 633.9Q131.23 621.03 138.91 608.5 145.79 596.4 152.26 584.46 158.16 572.59 163.85 560.68 169.46 548.52 175.19 536.13 181.44 523.22 188.15 509.94 195.88 495.94 204.31 481.47 208.96 473.95 213.85 466.26 218.99 458.39 224.36 450.36 229.94 442.16 235.71 433.79 241.65 425.26 247.72 416.57 253.9 407.73 260.13 398.73 266.39 389.6 272.63 380.34 278.81 370.95 284.89 361.45 290.82 351.85 296.57 342.15 302.1 332.37 307.37 322.52 312.36 312.62 317.04 302.66 321.4 292.67 325.42 282.66 329.1 272.63 332.44 262.6 335.45 252.59 338.14 242.59 340.53 232.63 342.66 222.71 344.56 212.84 346.26 203.02 347.82 193.28 349.28 183.61 350.7 174.02 352.12 164.52 353.61 155.11 355.21 145.8 356.99 136.58 358.99 127.47 362.55 114 363.84 109.55"
      stroke-dasharray="5 9" transform="rotate(0, 400, 400)" opacity="0.41"></path>
    <path
      d="M366.29 119.83C370.26 106.27 387.96 104.74 396.44 117.18Q402.21 125.04 408.33 132.98 414.77 141.02 421.48 149.16 428.44 157.4 435.58 165.75 442.85 174.21 450.2 182.77 457.57 191.44 464.89 200.22 472.11 209.11 479.17 218.1 486 227.2 492.56 236.39 498.79 245.68 504.65 255.06 510.09 264.53 515.09 274.07 519.63 283.68 523.67 293.35 527.23 303.08 530.29 312.85 532.87 322.66 534.98 332.49 536.65 342.33 537.93 352.18 538.85 362.02 539.46 371.85 539.82 381.64 539.99 391.39 540.04 401.08 540.05 410.72 540.07 420.27 540.19 429.74 540.47 439.11 540.99 448.37 541.81 457.52 542.99 466.54 544.6 475.42 546.67 484.16 549.26 492.75 552.38 501.19 556.08 509.46 560.35 517.57 565.21 525.51 570.64 533.28 576.64 540.87 583.16 548.29 590.17 555.54 597.63 562.62 605.48 569.54 613.65 576.29 622.07 582.88 630.67 589.33 639.37 595.63 648.08 601.79 656.73 607.84 665.21 613.76 673.47 619.59 681.41 625.32 688.96 630.97 696.05 636.56 702.63 642.1 708.63 647.61C716.18 655.51 707.22 674.69 693.48 683.38Q676.53 693.56 659.59 702.29 642.64 708.76 625.69 712.38 608.75 712.83 591.8 710.07 574.86 704.33 557.91 696.16 540.97 686.29 524.02 675.63 507.08 665.16 490.13 655.82 473.19 648.48 456.24 643.81 439.29 642.22 422.35 643.88 405.4 648.62 388.46 656.01 371.51 665.38 354.57 675.87 337.62 686.52 320.67 696.36 303.73 704.49 286.78 710.16 269.84 712.86 252.89 712.34 235.94 708.64 219 702.11 202.05 693.35 185.11 683.14 168.16 672.44 151.21 662.21C137.47 654.9 128.52 637.54 134.3 628.79Q141.75 617 148.74 605.42 155.02 594.05 160.92 582.71 166.38 571.27 171.71 559.69 177.07 547.74 182.61 535.49 188.71 522.66 195.31 509.43 202.9 495.47 211.18 481.04 215.72 473.55 220.5 465.9 225.51 458.1 230.73 450.13 236.15 442.01 241.75 433.73 247.5 425.31 253.38 416.75 259.35 408.05 265.39 399.22 271.45 390.26 277.49 381.2 283.49 372.03 289.4 362.76 295.18 353.4 300.79 343.97 306.21 334.48 311.4 324.92 316.34 315.33 320.99 305.69 325.35 296.04 329.39 286.36 333.12 276.69 336.52 267.02 339.61 257.37 342.38 247.75 344.87 238.16 347.08 228.62 349.05 219.13 350.81 209.69 352.39 200.33 353.84 191.03 355.2 181.82 356.52 172.69 357.85 163.64 359.23 154.69 360.72 145.83 362.36 137.07 365.25 124.12 366.29 119.83"
      stroke-dasharray="8 1" transform="rotate(4.04, 400, 400)" opacity="0.39"></path>
    <path
      d="M369.3 130.12C372.46 117.08 389.52 115.57 398.41 127.5Q410.57 142.64 423.71 158.13 437.5 174.01 451.55 190.28 465.44 206.97 478.76 224.06 491.11 241.54 502.15 259.38 511.61 277.56 519.33 296.02 525.25 314.71 529.45 333.57 532.1 352.52 533.5 371.48 534.03 390.39 534.16 409.15 534.37 427.68 535.17 445.9 537.04 463.74 540.4 481.13 545.57 498.01 552.77 514.32 562.1 530.02 573.49 545.1 586.77 559.53 601.59 573.32 617.54 586.48 634.09 599.05 650.67 611.08 666.69 622.63 681.59 633.76 694.87 644.58C703.19 652.23 695.97 670.75 682.77 678.76Q666.5 687.67 650.23 694.79 633.96 699.52 617.69 701.48 601.42 700.49 585.15 696.63 568.88 690.24 552.61 681.85 536.33 672.17 520.06 662.01 503.79 652.23 487.52 643.66 471.25 637.01 454.98 632.85 438.71 631.53 422.44 633.16 406.17 637.61 389.9 644.49 373.63 653.23 357.36 663.09 341.08 673.23 324.81 682.82 308.54 691.03 292.27 697.17 276 700.73 259.73 701.41 243.46 699.15 227.19 694.13 210.92 686.79 194.64 677.74 178.37 667.75 162.1 657.65C148.9 649.97 139.99 632.58 145.26 624.56Q152.09 613.61 158.35 602.77 164.1 591.94 169.45 581.02 174.53 569.9 179.53 558.49 184.63 546.71 190.04 534.48 195.94 521.76 202.51 508.48 209.86 494.63 218.07 480.19 227.17 465.15 237.12 449.52 247.79 433.34 259.04 416.63 270.64 399.45 282.35 381.85 293.89 363.9 304.98 345.66 315.38 327.22 324.87 308.65 333.27 290.02 340.49 271.41 346.51 252.88 351.4 234.51 355.29 216.35 358.41 198.45 361.03 180.85 363.49 163.58 367.72 138.39 369.3 130.12"
      stroke-dasharray="8 6" transform="rotate(8.08, 400, 400)" opacity="0.73"></path>
    <path
      d="M372.79 140.39C375.3 127.9 391.75 126.41 400.89 137.81Q413.14 152.29 426.08 167.1 439.41 182.26 452.77 197.8 465.8 213.72 478.12 230.02 489.43 246.69 499.44 263.71 507.95 281.06 514.86 298.69 520.14 316.55 523.88 334.61 526.26 352.78 527.55 371.02 528.09 389.24 528.28 407.38 528.55 425.36 529.35 443.12 531.1 460.57 534.15 477.65 538.82 494.3 545.32 510.47 553.73 526.12 564.05 541.2 576.15 555.69 589.79 569.59 604.61 582.88 620.19 595.59 636.06 607.74 651.7 619.37 666.61 630.53 680.31 641.29C689.18 648.83 683.53 666.47 670.91 673.54Q655.34 680.96 639.77 686.4 624.2 689.43 608.63 689.84 593.06 687.58 577.49 682.82 561.92 675.95 546.35 667.48 530.78 658.09 515.21 648.48 499.64 639.41 484.07 631.59 468.5 625.61 452.93 621.94 437.36 620.86 421.79 622.46 406.22 626.62 390.65 633 375.08 641.13 359.51 650.36 343.94 659.99 328.37 669.26 312.8 677.46 297.23 683.95 281.65 688.23 266.08 689.97 250.51 689.04 234.94 685.5 219.37 679.63 203.8 671.89 188.23 662.87 172.66 653.27C160.04 645.58 151.18 628.4 155.93 620.94Q162.07 610.63 167.71 600.3 172.92 589.84 177.82 579.18 182.56 568.23 187.29 556.93 192.21 545.2 197.49 533 203.28 520.29 209.74 507.04 216.95 493.24 225 478.88 233.86 463.97 243.51 448.54 253.84 432.61 264.69 416.23 275.88 399.45 287.18 382.31 298.34 364.88 309.12 347.23 319.29 329.43 328.65 311.53 337.02 293.62 344.32 275.75 350.49 257.98 355.57 240.38 359.65 222.99 362.91 205.84 365.57 188.99 367.89 172.46 371.5 148.32 372.79 140.39"
      stroke-dasharray="9 4" transform="rotate(12.12, 400, 400)" opacity="0.56"></path>
    <path
      d="M376.68 150.66C378.68 138.71 394.55 137.25 403.79 148.13Q415.93 161.95 428.51 176.07 441.25 190.53 453.82 205.33 465.91 220.48 477.22 236 487.49 251.86 496.51 268.05 504.13 284.56 510.28 301.35 514.97 318.38 518.29 335.61 520.42 352.99 521.6 370.46 522.15 387.96 522.4 405.44 522.73 422.81 523.53 440.03 525.16 457.02 527.94 473.72 532.14 490.08 537.97 506.04 545.52 521.55 554.82 536.57 565.78 551.08 578.23 565.04 591.89 578.44 606.44 591.29 621.46 603.59 636.53 615.37 651.21 626.65 665.06 637.47C674.28 645 670 661.56 657.96 667.5Q643.11 673.3 628.27 677.04 613.42 678.47 598.57 677.47 583.73 674.12 568.88 668.66 554.03 661.47 539.18 653.06 524.34 644.04 509.49 635.03 494.64 626.68 479.8 619.59 464.95 614.24 450.1 611.03 435.26 610.18 420.41 611.75 405.56 615.63 390.72 621.54 375.87 629.07 361.02 637.68 346.18 646.76 331.33 655.67 316.49 663.77 301.64 670.49 286.79 675.36 271.95 678.02 257.1 678.29 242.25 676.16 227.41 671.77 212.56 665.43 197.71 657.59 182.87 648.81C170.83 641.43 162.04 624.7 166.29 617.65Q171.79 607.78 176.85 597.77 181.58 587.54 186.09 577.02 190.53 566.15 195.04 554.88 199.81 543.16 204.97 530.96 210.66 518.27 217.01 505.06 224.09 491.33 231.95 477.09 240.58 462.37 249.92 447.18 259.89 431.56 270.35 415.55 281.11 399.2 291.99 382.57 302.77 365.71 313.22 348.68 323.14 331.54 332.34 314.35 340.67 297.17 348.01 280.05 354.31 263.06 359.58 246.23 363.87 229.61 367.31 213.23 370.08 197.13 372.39 181.32 375.59 158.24 376.68 150.66"
      stroke-dasharray="2 6" transform="rotate(16.16, 400, 400)" opacity="0.98"></path>
    <path
      d="M380.88 160.93C382.51 149.51 397.79 148.08 406.98 158.46Q418.84 171.62 430.91 185.06 442.94 198.8 454.64 212.87 465.76 227.27 476.05 241.99 485.3 257.05 493.37 272.41 500.14 288.08 505.58 304.02 509.72 320.21 512.67 336.6 514.57 353.16 515.67 369.84 516.22 386.58 516.52 403.34 516.91 420.06 517.7 436.68 519.22 453.15 521.75 469.4 525.52 485.38 530.73 501.04 537.48 516.34 545.81 531.23 555.68 545.67 566.96 559.63 579.45 573.1 592.89 586.06 606.96 598.51 621.3 610.44 635.54 621.88 649.28 632.85C658.65 640.46 655.51 655.8 644.07 660.47Q629.96 664.6 615.85 666.71 601.75 666.66 587.64 664.44 573.53 660.2 559.43 654.22 545.32 646.88 531.21 638.66 517.11 630.08 503 621.71 488.9 614.08 474.79 607.69 460.68 602.95 446.58 600.16 432.47 599.51 418.37 601.05 404.26 604.66 390.15 610.12 376.05 617.07 361.94 625.06 347.84 633.58 333.73 642.08 319.62 650.01 305.52 656.85 291.41 662.16 277.31 665.6 263.2 666.95 249.09 666.11 234.99 663.15 220.88 658.25 206.78 651.74 192.67 644.03C181.23 637.23 172.56 621.18 176.34 614.39Q181.23 604.79 185.78 594.95 190.08 584.83 194.26 574.36 198.45 563.5 202.79 552.23 207.42 540.51 212.49 528.32 218.09 515.65 224.33 502.51 231.27 488.9 238.94 474.83 247.31 460.34 256.34 445.44 265.95 430.18 275.99 414.6 286.33 398.74 296.79 382.66 307.17 366.4 317.28 350.02 326.92 333.57 335.94 317.11 344.19 300.68 351.55 284.34 357.96 268.12 363.41 252.07 367.92 236.23 371.58 220.62 374.51 205.27 376.9 190.2 379.91 168.18 380.88 160.93"
      stroke-dasharray="10 10" transform="rotate(20.200000000000003, 400, 400)" opacity="0.78"></path>
    <path
      d="M385.26 171.2C386.69 160.32 401.36 158.92 410.36 168.78Q421.76 181.28 433.19 194.04 444.41 207.08 455.18 220.42 465.3 234.06 474.58 248 482.85 262.25 490.01 276.79 495.99 291.62 500.77 306.71 504.42 322.04 507.02 337.59 508.73 353.31 509.74 369.17 510.3 385.12 510.65 401.13 511.08 417.14 511.87 433.11 513.29 448.98 515.58 464.7 518.97 480.23 523.6 495.52 529.6 510.51 537.02 525.18 545.84 539.47 555.99 553.37 567.31 566.83 579.62 579.85 592.65 592.4 606.13 604.47 619.73 616.08 633.12 627.22C642.45 634.96 640.18 648.97 629.35 652.31Q616 654.81 602.65 655.39 589.3 654.02 575.94 650.78 562.59 645.86 549.24 639.54 535.89 632.2 522.53 624.26 509.18 616.2 495.83 608.49 482.48 601.58 469.13 595.87 455.77 591.69 442.42 589.31 429.07 588.84 415.72 590.33 402.36 593.69 389.01 598.71 375.66 605.1 362.31 612.49 348.95 620.44 335.6 628.5 322.25 636.17 308.9 643.03 295.54 648.65 282.19 652.72 268.84 654.99 255.49 655.33 242.13 653.72 228.78 650.26 215.43 645.15 202.07 638.68C191.24 632.7 182.72 617.52 186.05 610.86Q190.4 601.39 194.5 591.62 198.44 581.52 202.34 571.04 206.33 560.17 210.54 548.88 215.07 537.16 220.05 525 225.57 512.4 231.7 499.37 238.49 485.93 245.95 472.09 254.06 457.89 262.77 443.34 272 428.5 281.64 413.4 291.55 398.08 301.57 382.58 311.54 366.97 321.28 351.27 330.64 335.53 339.46 319.82 347.59 304.15 354.94 288.59 361.44 273.15 367.04 257.89 371.76 242.83 375.65 227.99 378.8 213.39 381.34 199.05 384.34 178.09 385.26 171.2"
      stroke-dasharray="2 1" transform="rotate(24.24, 400, 400)" opacity="0.71"></path>
    <path
      d="M389.72 181.47C391.05 171.12 405.14 169.76 413.79 179.12Q424.6 190.96 435.27 203.04 445.6 215.38 455.41 227.99 464.53 240.87 472.81 254.04 480.14 267.49 486.44 281.21 491.68 295.19 495.87 309.43 499.07 323.91 501.36 338.59 502.89 353.46 503.83 368.48 504.39 383.61 504.79 398.83 505.26 414.09 506.04 429.35 507.36 444.56 509.44 459.69 512.46 474.69 516.57 489.51 521.88 504.12 528.44 518.47 536.27 532.53 545.33 546.26 555.5 559.63 566.65 572.62 578.59 585.21 591.09 597.37 603.89 609.11 616.73 620.42C625.84 628.29 624.23 640.93 614.02 642.96Q601.43 643.92 588.84 643.13 576.24 640.65 563.65 636.59 551.06 631.18 538.47 624.7 525.88 617.49 513.28 609.94 500.69 602.45 488.1 595.41 475.51 589.2 462.91 584.14 450.32 580.5 437.73 578.48 425.14 578.19 412.54 579.63 399.95 582.73 387.36 587.34 374.77 593.19 362.17 599.99 349.58 607.37 336.99 614.95 324.4 622.32 311.8 629.08 299.21 634.89 286.62 639.44 274.02 642.47 261.43 643.84 248.84 643.48 236.25 641.39 223.65 637.69 211.06 632.57C200.85 627.58 192.53 613.42 195.48 606.8Q199.36 597.36 203.07 587.59 206.71 577.46 210.4 566.96 214.23 556.07 218.32 544.78 222.78 533.09 227.68 521 233.11 508.52 239.13 495.66 245.75 482.44 253 468.89 260.83 455.04 269.21 440.91 278.06 426.54 287.28 411.96 296.74 397.23 306.33 382.36 315.88 367.42 325.25 352.43 334.29 337.44 342.87 322.48 350.87 307.6 358.17 292.82 364.71 278.18 370.45 263.71 375.37 249.43 379.5 235.36 382.89 221.52 385.63 207.92 388.79 188.02 389.72 181.47"
      stroke-dasharray="9 2" transform="rotate(28.28, 400, 400)" opacity="0.77"></path>
    <path
      d="M394.14 191.73C395.5 181.93 408.98 180.6 417.16 189.44Q427.24 200.63 437.06 212.04 446.46 223.68 455.28 235.57 463.41 247.7 470.73 260.1 477.16 272.75 482.67 285.65 487.23 298.8 490.87 312.19 493.66 325.8 495.67 339.62 497.04 353.62 497.92 367.78 498.48 382.07 498.92 396.47 499.42 410.94 500.19 425.44 501.43 439.95 503.31 454.41 506 468.8 509.63 483.08 514.3 497.21 520.07 511.15 526.97 524.88 534.98 538.34 544.04 551.52 554.04 564.39 564.85 576.93 576.3 589.1 588.18 600.91 600.28 612.33C608.99 620.3 607.83 631.57 598.23 632.35Q586.4 631.92 574.57 629.96 562.74 626.58 550.91 621.92 539.08 616.22 527.25 609.74 515.42 602.79 503.59 595.7 491.76 588.81 479.93 582.46 468.1 576.93 456.27 572.49 444.44 569.35 432.61 567.67 420.78 567.53 408.95 568.92 397.12 571.78 385.29 575.98 373.46 581.32 361.63 587.55 349.8 594.36 337.97 601.43 326.14 608.43 314.31 615.03 302.48 620.9 290.65 625.78 278.82 629.42 266.99 631.66 255.16 632.39 243.33 631.57 231.5 629.25 219.67 625.53C210.07 621.6 202.03 608.59 204.63 601.97Q208.11 592.5 211.51 582.69 214.92 572.52 218.44 562 222.15 551.12 226.16 539.86 230.55 528.25 235.38 516.29 240.73 503.99 246.61 491.37 253.07 478.45 260.08 465.25 267.63 451.81 275.67 438.15 284.12 424.31 292.92 410.32 301.94 396.2 311.07 382.01 320.19 367.77 329.17 353.52 337.88 339.29 346.2 325.11 354.02 311.02 361.25 297.04 367.8 283.2 373.64 269.52 378.73 256.02 383.08 242.72 386.72 229.63 389.72 216.77 393.14 197.93 394.14 191.73"
      stroke-dasharray="6 4" transform="rotate(32.32, 400, 400)" opacity="0.31"></path>
    <path
      d="M398.4 201.99C399.87 192.74 412.73 191.45 420.33 199.78Q429.59 210.32 438.5 221.06 446.93 232 454.77 243.17 461.93 254.56 468.34 266.19 473.93 278.04 478.7 290.13 482.64 302.45 485.79 314.99 488.2 327.74 489.97 340.68 491.2 353.81 492.03 367.1 492.59 380.53 493.06 394.08 493.59 407.73 494.35 421.43 495.5 435.17 497.21 448.92 499.6 462.63 502.79 476.29 506.87 489.86 511.91 503.3 517.95 516.58 524.97 529.68 532.96 542.57 541.83 555.21 551.51 567.58 561.85 579.67 572.71 591.45 583.93 602.9C592.11 610.93 591.19 620.86 582.2 620.52Q571.13 618.89 560.06 615.98 548.99 611.92 537.92 606.87 526.85 601.06 515.77 594.72 504.7 588.13 493.63 581.58 482.56 575.32 471.49 569.64 460.42 564.77 449.35 560.92 438.28 558.26 427.2 556.88 416.13 556.87 405.06 558.2 393.99 560.84 382.92 564.66 371.85 569.51 360.78 575.17 349.71 581.41 338.64 587.97 327.57 594.55 316.49 600.9 305.42 606.73 294.35 611.8 283.28 615.89 272.21 618.83 261.14 620.5 250.07 620.82 239 619.78 227.93 617.42C218.94 614.61 211.23 602.81 213.55 596.15Q216.71 586.63 219.86 576.78 223.1 566.61 226.49 556.1 230.12 545.27 234.07 534.11 238.4 522.64 243.16 510.88 248.41 498.83 254.16 486.52 260.42 473.96 267.19 461.19 274.44 448.23 282.13 435.1 290.19 421.84 298.55 408.48 307.12 395.03 315.8 381.54 324.48 368.04 333.05 354.55 341.41 341.1 349.44 327.71 357.05 314.42 364.16 301.25 370.68 288.21 376.58 275.32 381.81 262.61 386.36 250.08 390.25 237.75 393.52 225.62 397.3 207.85 398.4 201.99"
      stroke-dasharray="5 8" transform="rotate(36.36, 400, 400)" opacity="0.18"></path>
    <path
      d="M402.39 212.24C404.05 203.53 416.25 202.29 423.2 210.12Q431.57 220.01 439.52 230.08 446.98 240.33 453.86 250.78 460.09 261.44 465.63 272.3 470.45 283.37 474.54 294.65 477.92 306.14 480.62 317.83 482.71 329.72 484.26 341.8 485.37 354.05 486.14 366.46 486.71 379.02 487.2 391.7 487.75 404.49 488.49 417.36 489.57 430.29 491.11 443.26 493.23 456.24 496.02 469.2 499.57 482.12 503.95 494.97 509.18 507.73 515.28 520.36 522.25 532.83 530.04 545.14 538.59 557.24 547.81 569.12 557.59 580.75 567.81 592.13C575.37 600.15 574.51 608.82 566.14 607.53Q555.82 604.93 545.5 601.3 535.18 596.79 524.86 591.55 514.54 585.8 504.22 579.73 493.9 573.6 483.58 567.61 473.26 562.01 462.94 556.99 452.61 552.76 442.29 549.46 431.97 547.22 421.65 546.13 411.33 546.22 401.01 547.5 390.69 549.92 380.37 553.38 370.05 557.75 359.73 562.87 349.41 568.55 339.09 574.58 328.77 580.72 318.45 586.74 308.13 592.43 297.81 597.56 287.49 601.95 277.17 605.42 266.85 607.84 256.53 609.14 246.21 609.25 235.89 608.17C227.52 606.45 220.2 595.89 222.3 589.2Q225.22 579.65 228.19 569.8 231.3 559.66 234.61 549.23 238.18 538.51 242.08 527.52 246.35 516.28 251.04 504.78 256.17 493.06 261.77 481.14 267.83 469.02 274.35 456.74 281.29 444.32 288.61 431.79 296.27 419.16 304.19 406.46 312.3 393.73 320.51 380.98 328.74 368.24 336.89 355.52 344.87 342.87 352.59 330.29 359.96 317.81 366.91 305.44 373.36 293.21 379.27 281.12 384.6 269.19 389.32 257.44 393.44 245.86 396.97 234.46 401.16 217.75 402.39 212.24"
      stroke-dasharray="7 6" transform="rotate(40.400000000000006, 400, 400)" opacity="0.51"></path>
    <path
      d="M406.01 222.49C407.89 214.33 419.42 213.14 425.65 220.46Q433.08 229.7 440.08 239.1 446.58 248.67 452.53 258.41 457.89 268.33 462.62 278.44 466.73 288.74 470.2 299.22 473.08 309.89 475.39 320.74 477.18 331.77 478.54 342.98 479.54 354.35 480.27 365.88 480.83 377.55 481.34 389.35 481.91 401.26 482.64 413.27 483.65 425.36 485.04 437.51 486.9 449.7 489.34 461.91 492.41 474.11 496.17 486.29 500.67 498.41 505.93 510.47 511.94 522.44 518.69 534.28 526.15 545.99 534.25 557.54 542.93 568.91 552.09 580.09C558.91 588 557.99 595.51 550.22 593.46Q540.64 590.13 531.06 586.02 521.48 581.27 511.9 576.03 502.32 570.49 492.74 564.81 483.16 559.19 473.58 553.81 464 548.86 454.41 544.49 444.83 540.85 435.25 538.06 425.67 536.22 416.09 535.38 406.51 535.57 396.93 536.79 387.35 538.99 377.77 542.1 368.19 546.03 358.61 550.63 349.02 555.76 339.44 561.25 329.86 566.91 320.28 572.57 310.7 578.02 301.12 583.1 291.54 587.63 281.96 591.46 272.38 594.47 262.79 596.56 253.21 597.66 243.63 597.72C235.86 597.02 229.01 587.69 230.94 581Q233.67 571.47 236.53 561.69 239.55 551.65 242.8 541.37 246.34 530.86 250.19 520.13 254.41 509.18 259.01 498.05 264.02 486.74 269.45 475.28 275.29 463.67 281.53 451.95 288.15 440.14 295.1 428.25 302.34 416.3 309.82 404.32 317.46 392.32 325.21 380.34 332.98 368.38 340.69 356.47 348.28 344.62 355.66 332.86 362.75 321.19 369.5 309.64 375.84 298.21 381.71 286.92 387.09 275.78 391.94 264.79 396.25 253.96 400.02 243.3 404.63 227.65 406.01 222.49"
      stroke-dasharray="4 8" transform="rotate(44.44, 400, 400)" opacity="0.78"></path>
    <path
      d="M409.16 232.75C411.27 225.13 422.12 224 427.6 230.81Q434.08 239.41 440.13 248.15 445.71 257.03 450.78 266.07 455.32 275.27 459.32 284.63 462.77 294.15 465.7 303.84 468.12 313.7 470.08 323.72 471.63 333.91 472.82 344.25 473.72 354.74 474.41 365.39 474.97 376.16 475.49 387.07 476.06 398.09 476.77 409.22 477.71 420.43 478.96 431.73 480.61 443.08 482.72 454.47 485.36 465.89 488.57 477.33 492.41 488.75 496.88 500.14 502.01 511.49 507.8 522.77 514.21 533.97 521.22 545.06 528.79 556.04 536.85 566.88C542.91 574.58 541.84 581.08 534.65 578.47Q525.79 574.66 516.94 570.31 508.08 565.52 499.22 560.45 490.37 555.23 481.51 550.02 472.65 544.96 463.8 540.21 454.94 535.9 446.08 532.15 437.23 529.08 428.37 526.76 419.51 525.28 410.65 524.66 401.8 524.93 392.94 526.09 384.08 528.08 375.23 530.87 366.37 534.37 357.51 538.48 348.66 543.07 339.8 548.03 330.94 553.19 322.09 558.43 313.23 563.58 304.37 568.49 295.52 573.03 286.66 577.06 277.8 580.48 268.95 583.17 260.09 585.06 251.23 586.1C244.05 586.3 237.72 578.14 239.54 571.5Q242.16 562.08 244.94 552.45 247.92 542.61 251.13 532.57 254.63 522.36 258.44 511.97 262.59 501.42 267.09 490.73 271.96 479.91 277.2 468.99 282.81 457.97 288.76 446.87 295.03 435.71 301.6 424.52 308.42 413.29 315.44 402.06 322.62 390.84 329.89 379.65 337.19 368.49 344.46 357.4 351.63 346.37 358.64 335.43 365.43 324.58 371.93 313.85 378.1 303.23 383.9 292.73 389.27 282.37 394.19 272.15 398.65 262.08 402.62 252.15 407.64 237.56 409.16 232.75"
      stroke-dasharray="11 10" transform="rotate(48.48, 400, 400)" opacity="0.51"></path>
    <path
      d="M411.76 243C414.11 235.92 424.24 234.84 428.97 241.16Q434.51 249.12 439.65 257.2 444.35 265.41 448.6 273.75 452.4 282.23 455.73 290.85 458.6 299.61 461.04 308.52 463.07 317.58 464.73 326.78 466.05 336.12 467.09 345.61 467.9 355.24 468.56 365 469.11 374.88 469.64 384.89 470.21 395.02 470.9 405.24 471.77 415.56 472.9 425.97 474.34 436.45 476.17 446.99 478.42 457.58 481.14 468.2 484.38 478.84 488.15 489.49 492.48 500.13 497.36 510.75 502.8 521.32 508.77 531.84 515.26 542.3 522.22 552.66C527.49 560.06 526.19 565.66 519.57 562.71Q503.27 554.27 486.98 544.86 470.68 535.39 454.38 526.82 438.08 519.97 421.79 515.54 405.49 513.95 389.19 515.37 372.89 519.66 356.6 526.38 340.3 534.88 324 544.32 307.7 553.77 291.4 562.28 275.11 569.03 258.81 573.33C252.19 574.28 246.43 567.24 248.18 560.72Q250.74 551.5 253.48 542.12 256.43 532.58 259.62 522.89 263.08 513.06 266.84 503.11 270.9 493.05 275.29 482.89 280 472.65 285.03 462.33 290.38 451.96 296.02 441.54 301.94 431.1 308.12 420.64 314.5 410.18 321.07 399.73 327.77 389.31 334.55 378.92 341.37 368.59 348.18 358.32 354.92 348.12 361.54 338 367.98 327.98 374.21 318.06 380.17 308.24 385.83 298.55 391.14 288.97 396.08 279.51 400.62 270.19 404.75 260.99 410.11 247.46 411.76 243"
      stroke-dasharray="5 6" transform="rotate(52.52, 400, 400)" opacity="0.71"></path>
    <path
      d="M413.76 253.25C416.31 246.72 425.69 245.7 429.68 251.52Q438.6 266.27 446.01 281.45 451.86 297.11 456.24 313.26 459.32 329.92 461.37 347.08 462.72 364.73 463.8 382.84 465.02 401.39 466.85 420.31 469.68 439.54 473.88 459.02 479.73 478.66 487.39 498.37 496.93 518.07 508.28 537.65C512.78 544.66 511.2 549.48 505.15 546.39Q490.23 538.09 475.31 529.38 460.39 521 445.47 513.65 430.55 507.96 415.63 504.39 400.71 503.26 385.8 504.66 370.88 508.47 355.96 514.37 341.04 521.86 326.12 530.31 311.2 539.01 296.28 547.22 281.36 554.26 266.44 559.53C260.39 561.05 255.22 555.03 256.94 548.7Q262.19 530.78 268.29 512.41 275.39 493.66 283.6 474.62 292.93 455.38 303.32 436.03 314.64 416.66 326.68 397.35 339.2 378.19 351.86 359.25 364.36 340.6 376.34 322.29 387.51 304.37 397.59 286.88 406.38 269.84 413.76 253.25 413.76 253.25 413.76 253.25"
      stroke-dasharray="10 10" transform="rotate(56.56, 400, 400)" opacity="0.96"></path>
    <path
      d="M415.1 263.5C417.81 257.51 426.43 256.56 429.71 261.87Q437 275.34 443.01 289.18 447.76 303.41 451.33 318.06 453.88 333.14 455.65 348.65 456.9 364.59 457.95 380.95 459.14 397.69 460.79 414.79 463.24 432.2 466.76 449.88 471.58 467.77 477.86 485.81 485.7 503.93 495.08 522.06C498.83 528.58 496.99 532.78 491.48 529.73Q477.91 521.92 464.33 514.12 450.75 506.89 437.18 500.74 423.6 496.12 410.02 493.33 396.45 492.6 382.87 493.96 369.29 497.31 355.72 502.43 342.14 508.95 328.56 516.41 314.99 524.27 301.41 531.98 287.83 539 274.26 544.82C268.75 546.74 264.19 541.62 265.91 535.57Q271.14 518.56 277.18 501.24 284.14 483.7 292.05 465.99 300.91 448.19 310.65 430.38 321.18 412.61 332.3 394.95 343.83 377.46 355.52 360.2 367.1 343.21 378.33 326.54 388.94 310.21 398.73 294.25 411.29 271.08 415.1 263.5"
      stroke-dasharray="7 8" transform="rotate(60.599999999999994, 400, 400)" opacity="0.75"></path>
    <path
      d="M415.76 273.74C418.56 268.3 426.41 267.42 429.04 272.23Q434.87 284.43 439.65 296.93 443.43 309.76 446.3 322.93 448.41 336.46 449.94 350.36 451.09 364.62 452.12 379.23 453.25 394.19 454.75 409.47 456.85 425.05 459.77 440.9 463.7 456.98 468.77 473.24 475.08 489.65 482.67 506.15C485.71 512.1 483.65 515.79 478.67 512.93Q466.4 505.88 454.13 499.13 441.86 493.08 429.59 488.08 417.32 484.43 405.05 482.35 392.78 481.94 380.51 483.24 368.24 486.18 355.97 490.57 343.7 496.16 331.43 502.63 319.16 509.59 306.89 516.64 294.62 523.36 282.34 529.35C277.37 531.5 273.44 527.15 275.15 521.49Q280.36 505.59 286.32 489.53 293.06 473.35 300.62 457.11 308.96 440.86 318.03 424.66 327.73 408.54 337.92 392.57 348.45 376.77 359.13 361.19 369.78 345.86 380.18 330.81 390.15 316.06 399.5 301.62 411.92 280.63 415.76 273.74"
      stroke-dasharray="2 8" transform="rotate(64.64, 400, 400)" opacity="0.64"></path>
    <path
      d="M415.74 283.99C418.56 279.09 425.63 278.28 427.68 282.61Q432.21 293.53 435.93 304.71 438.89 316.16 441.18 327.88 442.92 339.9 444.24 352.21 445.3 364.83 446.28 377.74 447.35 390.94 448.69 404.42 450.49 418.17 452.89 432.17 456.05 446.4 460.08 460.83 465.06 475.42 471.05 490.16C473.45 495.49 471.22 498.77 466.76 496.23Q455.76 490.14 444.77 484.52 433.77 479.62 422.78 475.7 411.78 472.93 400.79 471.44 389.79 471.31 378.8 472.54 367.8 475.07 356.8 478.79 345.81 483.51 334.81 489.02 323.82 495.04 312.82 501.3 301.83 507.5 290.83 513.33C286.37 515.53 283.05 511.85 284.76 506.63Q289.92 492.06 295.73 477.42 302.2 462.75 309.33 448.09 317.1 433.47 325.44 418.93 334.29 404.51 343.53 390.24 353.05 376.14 362.72 362.24 372.39 348.56 381.91 335.12 391.14 321.94 399.93 309.01 411.96 290.18 415.74 283.99"
      stroke-dasharray="8 0" transform="rotate(68.68, 400, 400)" opacity="0.75"></path>
    <path
      d="M415.06 294.23C417.83 289.88 424.08 289.14 425.64 292.98Q429.07 302.65 431.9 312.52 434.18 322.6 435.99 332.9 437.41 343.44 438.55 354.2 439.52 365.21 440.44 376.46 441.44 387.95 442.64 399.67 444.16 411.62 446.12 423.79 448.63 436.16 451.76 448.72 455.61 461.46 460.21 474.36C462.06 479.04 459.72 481.96 455.77 479.82Q446.02 474.81 436.27 470.32 426.52 466.53 416.78 463.58 407.03 461.58 397.28 460.6 387.53 460.68 377.78 461.83 368.03 463.99 358.28 467.08 348.53 470.99 338.78 475.58 329.03 480.66 319.28 486.05 309.53 491.55 299.78 496.94C295.83 499.05 293.09 495.95 294.79 491.24Q299.84 478.16 305.43 465.08 311.54 452.02 318.19 439.01 325.32 426.09 332.9 413.26 340.86 400.55 349.14 387.98 357.64 375.58 366.27 363.35 374.94 351.3 383.52 339.46 391.93 327.83 400.05 316.41 411.42 299.72 415.06 294.23"
      stroke-dasharray="2 7" transform="rotate(72.72, 400, 400)" opacity="0.45"></path>
    <path
      d="M413.75 304.48C416.38 300.67 421.83 300.01 422.97 303.36Q425.49 311.78 427.59 320.36 429.32 329.1 430.74 338.01 431.9 347.09 432.88 356.35 433.76 365.8 434.61 375.44 435.53 385.26 436.58 395.26 437.86 405.46 439.45 415.83 441.4 426.37 443.8 437.08 446.69 447.96 450.12 458.97C451.49 462.98 449.15 465.62 445.69 463.91Q437.16 460.01 428.64 456.62 411.59 452.11 394.55 449.84 377.5 451.51 360.45 455.46 351.93 458.62 343.4 462.34 334.88 466.5 326.35 470.99 317.83 475.67 309.3 480.41C305.84 482.32 303.65 479.68 305.29 475.54Q310.15 464.08 315.42 452.66 321.1 441.3 327.17 430 333.62 418.8 340.39 407.69 347.45 396.7 354.74 385.84 362.22 375.12 369.8 364.54 377.43 354.11 385.03 343.85 392.53 333.75 399.87 323.82 410.36 309.27 413.75 304.48"
      stroke-dasharray="5 10" transform="rotate(76.76, 400, 400)" opacity="0.48"></path>
    <path
      d="M411.88 314.71C414.29 311.46 418.93 310.89 419.74 313.74Q423.06 328.23 425.46 343.19 427.24 358.66 428.79 374.67 430.52 391.24 432.84 408.36 436.13 426.03 440.72 444.22C441.7 447.55 439.45 449.92 436.48 448.66Q421.85 443.43 407.22 440.17 392.59 439.13 377.96 440.41 363.33 443.9 348.7 449.31 334.07 456.18 319.43 463.93C316.47 465.55 314.77 463.31 316.33 459.79Q325.73 440.34 336.3 421.15 347.92 402.3 360.34 383.84 373.3 365.82 386.45 348.28 399.43 331.24 411.88 314.71 411.88 314.71 411.88 314.71"
      stroke-dasharray="3 1" transform="rotate(80.80000000000001, 400, 400)" opacity="0.52"></path>
    <path
      d="M409.52 324.95C411.63 322.24 415.48 321.75 416.02 324.12Q418.35 336.13 420.15 348.45 421.61 361.14 422.97 374.19 424.45 387.63 426.3 401.46 428.73 415.68 431.94 430.29C432.61 432.95 430.54 435.04 428.06 434.19Q415.83 430.8 403.61 428.86 391.38 428.49 379.15 429.7 366.92 432.42 354.7 436.5 342.47 441.7 330.24 447.7C327.76 448.99 326.49 447.12 327.91 444.22Q336.35 428.27 345.57 412.56 355.48 397.13 365.94 382 376.78 367.21 387.79 352.77 398.78 338.68 409.52 324.95 409.52 324.95 409.52 324.95"
      stroke-dasharray="0 5" transform="rotate(84.84, 400, 400)" opacity="0.69"></path>
    <path
      d="M406.76 335.2C408.51 333.03 411.55 332.63 411.92 334.52Q413.51 344.07 414.83 353.82 416.01 363.79 417.15 374 418.37 384.45 419.79 395.15 421.53 406.1 423.69 417.31C424.14 419.36 422.33 421.13 420.35 420.64Q410.52 418.76 400.69 417.84 390.86 417.92 381.03 418.99 371.2 421.03 361.37 423.94 351.54 427.62 341.71 431.94C339.72 432.87 338.81 431.34 340.06 429.07Q347.28 416.6 354.98 404.31 363.09 392.23 371.54 380.37 380.23 368.73 389.07 357.32 402.35 340.67 406.76 335.2"
      stroke-dasharray="1 7" transform="rotate(88.88, 400, 400)" opacity="0.22"></path>
    <path
      d="M403.7 345.43C405.04 343.81 407.31 343.51 407.54 344.92Q409.54 359.26 411.33 374.09 413.31 389.46 415.87 405.38C416.15 406.85 414.71 408.27 413.21 408.05Q398.37 407.06 383.54 408.28 368.7 411.61 353.86 416.78C352.36 417.39 351.76 416.19 352.77 414.53Q364.53 396.48 377.14 378.94 390.31 361.92 403.7 345.43 403.7 345.43 403.7 345.43"
      stroke-dasharray="9 10" transform="rotate(92.92, 400, 400)" opacity="0.10"></path>
    <path
      d="M400.45 355.68C401.36 354.59 402.86 354.39 402.99 355.33Q404.27 364.8 405.52 374.49 406.85 384.4 408.38 394.55C408.53 395.48 407.53 396.5 406.52 396.46Q396.55 396.54 386.59 397.58 376.62 399.55 366.65 402.37C365.64 402.7 365.29 401.85 366.01 400.79Q374.19 389.15 382.73 377.75 395.98 361.14 400.45 355.68"
      stroke-dasharray="9 6" transform="rotate(96.96, 400, 400)" opacity="0.14"></path>
  </g>
</svg>
