<svg xmlns="http://www.w3.org/2000/svg" viewBox="0 0 640 800"><defs><linearGradient id="a" x1="50%" x2="50%" y1="0%" y2="100%"><stop offset="0%" stop-color="hsl(206, 75%, 49%)"/><stop offset="100%" stop-color="hsl(331, 90%, 56%)"/></linearGradient></defs><g fill="none" stroke="url(#a)" stroke-linecap="round" stroke-width="1.5"><path d="M1020.59 244.97c-66.94 32.86-199.38 81.4-341.83 147.05-102.44 69.05-132.9 158.64-92.34 264.02 94.9 97.09 201.48 185.2 284.03 237.08 43.45-1.28 31.63-64.28-25.8-176.98-91.77-105.21-197.89-161.41-300.5-117.06-97.74 142.36-176.81 327.81-237.31 456.4-49.04-7.21-86.22-149.83-117.66-332.38-27.8-77.44-56.76 14.26-89.62 216.04C66.7 1089.22 31.5 1064.17-2.67 893.22-33.2 702.52-55.81 623.9-63.71 691.04c3.55 159.51 28.51 295.58 75.6 330.54 51.96-78.72 110.89-231.45 159.6-388.57 14.36-119.13-12.78-167.93-90.44-158.78-116.76 54.09-252.82 117.43-371.8 166.47-64.65 42.54-52.89 57.93 36.87 50.89 129.76-13.46 255.53-39.1 322.47-71.96-26.64-32.86-129.16-71.38-260.45-119.89-114.35-54.92-163.18-130.09-134.18-229.57C-231.56 164.19-101.36 46.72 26.95-58.01c102.8-59.81 160.06-58.21 173.15 17.84-26.48 114.04-73.24 227.81-122.26 272.34C26.03 163.02-8.71-2.5-23.61-186.1c-5.76-91.25 5.14-31.37 27.4 146.63 25.82 158.28 56.63 176.72 89.49 26.69 32.86-201.8 66.21-286.88 102.37-196.79 39.7 195.22 88.58 356.55 151.29 387.89C418.79 73.83 507.65-82.14 610.1-190.3c99.67-10.16 193.61 84.99 263.16 233.25 29.98 155.77 11.68 265.96-56.9 317.91-94.1-1.23-194.83-35.21-265.22-75.35-4.92-48.44 62.61-78.25 189.65-85.33 143.97-3.69 253.16 11.94 279.8 44.79q0 0 0 0" opacity=".8"/><path d="M986.59 449.46c-59.45 30.51-178.4 79.66-312.82 143.68-108.89 61.08-161.53 129.22-151.39 191.45 66.11 40.71 158.63 52.1 247.47 19.73 70.75-64.2 100.43-158.16 88.22-250.96-47.8-42.25-121.96-11.52-207.2 105.2-93.62 163.64-180.49 314.5-254.93 374.99-69.67-62.63-126.29-219.23-171.81-375.28-42.96-44.47-79.1 57.45-109.61 246.87-30.52 144.39-53.95 139.7-68.54-1.9-12.03-186.44-10.91-303.56 5.87-296.8 21.57 116.01 58.19 261.74 104.78 358.02 38.2 10.24 68.56-71.56 76.37-203.9-27.79-147.59-93.65-264.16-196.17-333.84-120.6-25.04-240.48-15.23-328.96 8.22-32.52 37.33 2.76 64.58 99.88 73.95 122.64 8.82 235.39-1.82 294.84-32.32-21.64-30.51-110.57-79.46-230.32-145.81-115.02-66.91-181.91-149.67-183.86-239.88 59.32-76.34 163.71-136.41 284.17-158.4 116.3 22.64 204.97 95.37 258.27 202.97 18.05 92.36 7.96 138-17.07 96.01-39.14-128.04-74.51-301.12-98.71-439.51-22.56-29.16-30.16 70.57-23.41 245.22 8.67 129.84 28.78 128.39 59.29-15.96 30.51-189.43 69.99-285.2 118.86-228.99C320.61-39.97 383.72 134 459.16 219.02c77.08-38.09 162.7-161.57 248.87-293.44 72.06-84.97 125.95-79.53 147.9 2.69-13.31 132.78-65.81 270.55-150.34 381.78-88.69 79.41-165.72 118.28-202.67 130.46 24.33-9.34 108.58-21.97 235.37-25.51 131.54-6.47 226.66 3.96 248.3 34.46q0 0 0 0" opacity=".96"/><path d="M952.59 610.82c-52.32 28.17-157.85 61.82-282.33 96.08-145.6 38.38-128.19 6.33-12.89-87.97 80.9-69.77 137.75-131.75 162.98-156.15-3.32 36.94-36.21 137.86-88.69 286.31-68.16 144.43-140.92 236.98-210.12 230.55-71.01-101.53-132.81-255.79-183.37-379.53-49.81-14.22-89.12 94.53-117.29 271.03-28.16 137.76-43.85 150.74-47.17 39.43-2.55-172.15 8-312.92 30.21-360.35 20.38 57.94 46.76 179.24 71.5 300.16 9.07 79.19 1.53 81.24-32.07 15.93C181.21 752.68 90.96 626.16-19.26 514.65c-110.05-91.88-204.46-150.36-259.98-182.76-3.36-12.81 50.11-16.49 150.09-22.33 113.61-1.69 213.42-14.66 265.74-42.82-17.09-28.16-92.95-70.19-199.94-121.62C-214.28 74.06-220.52 3.89-84.52 58.39c112.12 68.09 214.75 154.18 295.46 230.9 56.53 28.41 86.01-7.01 95.15-115.51-17.2-223.52-63.94-286.29-67.02-62.66 1.93 100.47 16.58 81.82 44.75-55.91 28.17-176.5 68.51-279.58 119.7-254.52 51.18 134.6 112.47 304.88 180.35 427.07 63.43 27.09 125.88-40.19 178.45-155.29 34.28-119.12 45.24-186.65 25.62-186.67-43.79 61.31-113.03 163.71-195.83 276.89-70.52 114.78-117.57 207.04-121.78 273.6 48.49 49.7 143.35 81.89 265.73 106.16 117.87 18.86 199.44 40.21 216.53 68.37q0 0 0 0" opacity=".45"/><path d="M918.59 588.38c-45.58 25.82-137.89 41.05-250.91 43.68-108.66-.54-189.28-18.46-229.27-54.98 4.55-38.82 45.13-89.05 106.59-137.92 74.75-24.12 141.46-17.58 189.58 35.41 31.09 96.5 36.73 227.14 21.04 361.96-31.96 95.06-76.03 121.27-124.71 60.42-54.58-121-106.42-258.88-151.32-347.37-45.73 12.25-82.43 124.49-108.25 287.56-25.82 130.23-39.53 157.99-42.49 76.54-3.8-149.9 1.07-298.89 10.91-387.8 3.94-2.54 5.48 70.39-2.35 178.15-24.11 109.68-66.81 176.59-131.74 187.39C123.71 850.19 26.39 769.28-75.24 672.3c-88.34-106.19-152.08-199.54-175.56-273.5 21.07-63.29 86.99-109.26 185.69-143.65 103.04-29.94 190.13-56.26 235.7-82.08-13-25.82-76.42-49.92-169.86-68.68-104.39-14.3-189.11-15.31-236.49 3.24-5.8 29.2 32.63 80.03 103.59 146.43C-39.01 311.25 59.58 355.1 150.35 362.5c80.02-44.62 140.35-142.13 181.74-278.69 25.49-134.64 38.49-230.74 45.4-247.14-.33 69.95 1.03 204.23 8.4 344.17 5.97 71.52 21.03 38.56 46.85-91.64 25.82-163.07 61.18-270.11 103.9-272.43 41.32 98.44 86.93 251 132.01 390.94 37.83 79.79 67.35 76.75 81.65 8.58-1.59-107.94-24.86-207.96-71.03-270.62-56.93-19.15-124.93 11.37-191.2 75.27-44.07 88.67-59.35 181.42-34.62 264.98 66.31 81.27 165.72 146.16 280.08 195.39 103.4 46.06 172.06 81.25 185.06 107.07q0 0 0 0" opacity=".6"/><path d="M884.58 401.72c-39.24 23.47-118.73 30.97-219.15 23.97-102.81-6.27-188.79-24.52-245.49-49.05-21.89-15.18-10.73-23.51 24.86-12.81 55.94 38 116.08 107.57 169.99 208.66 48.8 114 80.57 228.56 94.67 315.11 2.25 32.82-10 .22-31.99-94.86-28.64-121.16-60.88-232.22-92.49-285.4-33.22 34.12-62.58 146.63-86.05 295.81-23.47 121.83-39.95 161.31-50.99 108.02-12.65-122.17-23.12-265.09-35.16-378.71-18.68-54.26-45.08-39.24-83.51 26.98-50.28 98.2-115.74 190.61-195.31 254.13-84.67 30.61-172.63 19.58-253-22.45-60.04-66.28-92.24-142.18-87.56-215.42C-167.1 499.84-94.49 435.72-.74 385.62c91.36-48.7 166.09-84.87 205.33-108.34-9.35-23.47-61.11-33.14-140.62-28.7-94.35 5.83-179.28 27.25-239.22 62.43-30.23 32.57-23.25 69.81 15.7 99.92 64.54 5.85 144.28-16.82 227.77-78.19 84.57-94.29 159.5-214.53 221.37-337.16 52.38-90.65 92.06-126.73 122.03-89.67 23.36 96.4 42.43 225.96 60.74 339.07 16.49 44.24 35.74 0 59.21-121.83 23.47-149.17 50.05-256.93 77.83-281.99 25.96 62.24 49.59 186.64 66.91 325.01 10.71 112.29 9.68 165.94-6.52 157.56-25.69-62.11-66.92-148.85-120.72-232.08-78.7-88.26-152.25-59.05-97.79 20.3 77.13 65.21 175.42 126.15 278.84 176.69 88.57 51.26 145.09 89.6 154.47 113.07l-.01.01" opacity=".4"/><path d="M850.65 213.43c-33.09 21.12-100.13 34.18-187.2 41.73-93.92 10.33-179.89 20.78-246.83 37.56-42.39 27.81-57.79 71.11-49.79 134.72 29.74 77.66 70.99 172.14 115.34 273.67 48.48 88.41 89.29 154.05 118.98 178.24 24.38-23.78 36.26-95.93 37.13-202.17-3.9-104.99-15.43-183.11-31.96-203.58-18.02 50.81-38.24 160.53-59.37 295.44-21.12 112.59-42.14 160.66-63.96 132.69-23.32-91.67-50.21-216.79-82.93-337.27-37.48-89.1-84.14-126.83-141.08-114.46-62.25 55.63-133.39 131.75-209.55 207.1C-22.6 726.14-88.9 769.79-140.64 786.28c-30-4.59-33.54-29.76-6.64-66.33 51.46-46.37 125.41-93.27 211.16-134.45 78.92-42.85 141.68-76.09 174.77-97.22-6.41-21.13-47.61-29.15-113.37-26.13-82.22 1.34-162.38 9.81-227.76 19.57-46.76-.04-65.21-9.65-56.15-37.6 32.68-49.04 84.69-123.02 147.75-219.74C60.9 121.34 132.31 20.17 198.13-57.46 261.57-91.84 315.95-73.07 360.98.52c41.21 104.99 75.21 218.09 103.55 301.62 26.96 19.84 50.72-32.47 71.84-145.04 29.87-187.64 65.21-209.38 62.83-43.85-8.43 121.73-28.01 212.83-58.9 258.61-33.25-2.18-74.34-42.77-118.44-103.5-35.37-73.83-62.34-137.99-73.02-183.1 12.94-31.05 50.33-39.56 112.58-30.76 80.87 19.84 173.06 47.81 263.43 77.32 73.91 32.29 119.39 60.48 125.8 81.61q0 0 0 0" opacity=".54"/><path d="M816.57 187.93c-27.77 18.78-83.3 41.82-156.89 70.19-82.68 30.46-163.7 69.91-234.04 120.45C370.52 434.01 335 501.85 318.77 579.5c2.64 75.53 19.14 149.94 43.92 211.96 33.79 37.65 67.47 45.01 96.8 14.87 29.8-60.6 51.56-147.58 64.32-243.84 10.9-77.55 13.31-121.21 7.89-113.75-6.24 62.01-18.9 166.14-37.68 286.47-18.78 102.55-42.78 155.99-71.96 149.57-29.99-61.12-66.56-160.35-110.01-271.58-45.29-103.28-97.98-177.25-156.72-213.84-58.27 1.53-118.91 33.64-177.3 82.99-49.39 62.81-88.16 121.23-110.34 167.07-3.32 38.29 15.36 59.08 56.71 64.54 56.58-2.56 126.9-14.87 202.33-32.35 66.35-19.9 118.07-40.35 145.84-59.12-3.54-18.78-34.85-35-87.09-50.51-68.61-17.94-140.09-39.79-204.66-69.77-55.3-38.01-91.38-89.72-106.54-156.95 3.16-74.78 25.11-160.16 60.95-247.58C-17.33 23.72 36.16-30.64 90.62-51.72c57.41 17.03 110.96 74.15 158.34 163.67 46.71 97.47 86.61 186.01 119.23 239.88 32.08-.82 57.72-58.07 76.5-160.62C463.47 70.88 474.5-29.44 477.84-84.21c2.8-.21-2.94 54.14-17.11 145.45-14.83 110.02-37.46 213.83-65.93 293.99-25.53 49.7-52.07 64.6-74.9 51.56-11.24-37.41-10.93-84.86 5.46-131.45 34.7-48.72 87.62-85.63 156.67-108.53 78.35-17.99 160.51-23.28 236.37-18.34 59.49 7.05 94.62 20.67 98.18 39.45l-.01.01" opacity=".74"/><path d="M782.58 347.22c-66.94 32.86-199.22 106.87-337.49 212.44-108.54 97.7-161.86 193.51-168.44 231.69 32.07-43.62 71.58-175.78 95.2-331.2 25.97-55.78 24.63 39.25-8.23 241.05-32.86 150.04-94.13 124.28-177.05-34.03-80.57-188.29-171.36-298-246.5-309.86C-96.41 422.84-77.95 503.08 6.5 552c114.18 41.96 233.14 43.53 300.08 10.67-26.64-32.86-122.62-97.04-236.7-195.95C-34.47 260.85-82.89 129.32-74.6 20.73c49.63-31.2 124.96 43.65 198.68 207.85 79.68 134.21 140.79 146.66 173.65-3.38 32.86-201.8 34.36-283.5 11.63-203.65-16.77 179.51-40.83 346.52-47.38 433.22 34.78 4.88 118.05-39.64 246.49-80.4 138.17-48.61 247.47-60.01 274.11-27.15q0 0 0 0" opacity=".97"/><path d="M748.58 552.48c-52.34 28.16-157.85 80.28-277.52 138.04-111.05 39.54-189.73 48.84-232.43-.41-9.89-150.82 5.76-254.68-24.74-22.96-28.17 137.76-77.17 149.13-137.25 47.27-53.11-160.9-101.88-303.84-126.5-386.43 5.79-23.82 54.58-5.56 144.98 17.54 99.03 34.66 193.12 43.62 245.46 15.46-17.07-28.15-87.58-90.77-179.43-174.25C62.49 114.82-5.4 52.6-33.1 39.49c.43 45.65 30.23 158.71 71.48 298.97 49.85 81.23 94.05 58.48 122.22-79.25C188.77 82.69 198.24-16.35 197.2 4.37c7.55 117.68 21.71 271.4 58.18 397.23C320 487.78 417.76 522.43 537.06 531.71c112.5-8.96 194.44-7.41 211.53 20.76l-.01.01" opacity=".67"/><path d="M714.58 624.86c-39.23 23.47-118.89 39.55-214.96 38.42-99.83-12.98-185.3-59.64-247.86-140.6-44.86-81.44-72.12-159.55-90.46-192.88-11.7 41.12-26.52 154.18-49.99 303.35-23.48 121.83-53.38 159.04-82.35 110.61C6.62 633.9-2.74 504.94 11.35 396.78c31.79-84.72 92.36-132.72 174.99-157.39 78.87-11.04 149.01-22.57 188.24-46.04-9.35-23.48-56.97-56.66-124.22-86.3-81.45-16.01-150.1-4.64-194.61 49.3-30.98 77.4-37.25 181.46-26.22 274.11 17.66 31.24 41.42-15.45 64.89-137.25 23.47-149.19 44.43-252.76 67.45-276.7 29.64 50.53 72.54 153.54 134.28 265.74 75.27 111.73 168.82 195.03 267.47 248.69 84.46 41.8 141.59 70.44 150.97 93.91l-.01.01" opacity=".08"/><path d="M680.59 501.21c-27.76 18.78-83.63 14.02-154.01-12.83-78.91-28.21-154.78-76.87-218.93-134.24-57.61-39.99-102.25-60.96-135.06-42.83-29.02 63.55-52.24 167.51-71.02 287.83-25.06 128.03-26.93 52.68 13.74-77.62 39.54-91.54 95.5-165.92 160.64-218.4 56.62-46.7 104.88-78.5 132.64-97.28-3.56-18.78-31.85-22.75-75.11-8.6-57.83 19.94-113.02 65.01-156.24 131.94-52.31 95.74-71.48 129.79-48.67-2.04 18.77-120.32 46.49-216.67 83.17-266.46 39.73-4.36 92.8 36.52 157.83 101.13 67.84 81.98 142.94 159.94 214.53 220.69 57.03 59.4 92.93 99.93 96.49 118.71q0 0 0 0" opacity=".27"/><path d="M646.58 289.33c-52.34 28.17-157.85-4.01-258.48-39.32-100.09 25.05-170.95 138.64-199.12 315.14-28.17 137.77-8.3 145.67 54.87 69.63 63.71-120.24 146.39-219.01 198.73-247.18-17.07-28.17-76.99 19.61-133.23 102.93-64.53 39.13-89.62 8.39-61.45-129.38 28.17-176.5 104.25-267.26 205.7-255.39 93.16 72.22 175.91 155.4 192.98 183.57q0 0 0 0" opacity=".42"/><path d="M612.59 173.91c-82.96 37.56-240.31 132.68-277.86 357.23-37.56 158.58 58.9 86.57 141.86 49.01-37.91-37.55-114.91-26.43-77.35-185.01 37.55-224.55 175.44-258.78 213.35-221.23q0 0 0 0" opacity=".24"/></g></svg>